{"glyphs":{"0":{"ha":550,"x_min":0,"x_max":0,"o":"m 196 749 b 275 844 196 818 226 844 b 354 749 324 844 354 818 l 354 224 b 275 128 354 154 324 128 b 196 224 226 128 196 154 z m 43 233 b 275 -11 43 78 125 -11 b 507 233 425 -11 507 78 l 507 739 b 275 983 507 894 425 983 b 43 739 125 983 43 894 z "},"1":{"ha":550,"x_min":0,"x_max":0,"o":"m 150 742 l 268 742 l 268 0 l 421 0 l 421 972 l 318 972 b 150 850 294 907 268 850 z "},"2":{"ha":550,"x_min":0,"x_max":0,"o":"m 358 733 b 208 429 358 629 325 553 b 56 119 94 310 56 228 l 56 0 l 497 0 l 497 139 l 208 139 b 207 160 207 146 207 153 b 322 354 207 211 232 257 b 511 739 464 506 511 610 b 283 983 511 894 433 983 b 56 739 133 983 56 894 l 56 644 l 200 644 l 200 749 b 279 844 200 818 231 844 b 358 733 328 844 358 821 z "},"3":{"ha":550,"x_min":0,"x_max":0,"o":"m 350 679 b 258 576 350 601 315 576 l 199 576 l 199 438 l 250 438 b 350 314 319 438 350 404 l 350 238 b 271 128 350 151 319 128 b 192 224 222 128 192 154 l 192 314 l 47 314 l 47 233 b 275 -11 47 78 125 -11 b 503 233 425 -11 503 78 l 503 310 b 396 513 503 408 472 479 l 396 515 b 503 714 469 546 503 610 l 503 739 b 275 983 503 894 425 983 b 47 739 125 983 47 894 l 47 686 l 192 686 l 192 749 b 271 844 192 818 222 844 b 350 733 319 844 350 821 z "},"4":{"ha":550,"x_min":0,"x_max":0,"o":"m 19 176 l 311 176 l 311 0 l 464 0 l 464 176 l 536 176 l 536 315 l 464 315 l 464 972 l 297 972 l 19 315 z m 160 315 l 308 675 l 311 675 l 311 315 z "},"5":{"ha":550,"x_min":0,"x_max":0,"o":"m 49 314 l 49 233 b 276 -11 49 78 126 -11 b 504 233 426 -11 504 78 l 504 450 b 335 672 504 593 447 672 b 203 601 274 672 231 647 l 200 601 l 213 833 l 479 833 l 479 972 l 76 972 l 49 408 l 193 408 l 193 438 b 272 533 193 507 224 533 b 351 438 321 533 351 507 l 351 224 b 272 129 351 154 321 129 b 193 224 224 129 193 154 l 193 314 z "},"6":{"ha":550,"x_min":0,"x_max":0,"o":"m 46 233 b 278 -11 46 78 128 -11 b 510 233 428 -11 510 78 l 510 411 b 340 633 510 554 453 633 b 201 549 272 633 228 604 l 199 549 l 199 725 b 283 844 199 818 229 844 b 363 749 332 844 363 818 l 363 714 l 507 714 l 507 739 b 279 983 507 894 429 983 b 46 731 121 983 46 894 z m 278 494 b 357 399 326 494 357 468 l 357 224 b 278 129 357 154 326 129 b 199 224 229 129 199 154 l 199 399 b 278 494 199 468 229 494 z "},"7":{"ha":550,"x_min":0,"x_max":0,"o":"m 46 972 l 46 833 l 350 833 l 126 0 l 279 0 l 504 839 l 504 972 z "},"8":{"ha":550,"x_min":0,"x_max":0,"o":"m 514 233 l 514 310 b 419 511 514 403 486 474 l 419 514 b 514 708 482 549 514 613 l 514 739 b 275 983 514 894 429 983 b 36 739 121 983 36 894 l 36 708 b 131 514 36 613 67 549 l 131 511 b 36 310 64 474 36 403 l 36 233 b 275 -11 36 78 121 -11 b 514 233 429 -11 514 78 z m 189 238 l 189 328 b 275 438 189 404 221 438 b 361 328 329 438 361 404 l 361 238 b 275 128 360 151 324 128 b 189 238 226 128 189 151 z m 189 733 b 275 844 189 821 226 844 b 361 733 324 844 361 821 l 361 679 b 275 576 361 601 324 576 b 189 679 225 576 189 601 z "},"9":{"ha":550,"x_min":0,"x_max":0,"o":"m 504 739 b 272 983 504 894 422 983 b 40 739 122 983 40 894 l 40 561 b 210 339 40 418 97 339 b 349 424 278 339 322 368 l 351 424 l 351 247 b 267 128 351 154 321 128 b 188 224 218 128 188 154 l 188 258 l 43 258 l 43 233 b 271 -11 43 78 121 -11 b 504 242 429 -11 504 78 z m 272 478 b 193 574 224 478 193 504 l 193 749 b 272 843 193 818 224 843 b 351 749 321 843 351 818 l 351 574 b 272 478 351 504 321 478 z "}," ":{"ha":215,"x_min":0,"x_max":0,"o":""},"!":{"ha":264,"x_min":0,"x_max":0,"o":"m 189 215 l 208 567 l 208 972 l 56 972 l 56 567 l 75 215 z m 58 147 l 58 0 l 206 0 l 206 147 z "},"\"":{"ha":451,"x_min":0,"x_max":0,"o":"m 76 686 l 181 686 l 203 972 l 56 972 z m 269 686 l 374 686 l 396 972 l 249 972 z "},"#":{"ha":569,"x_min":0,"x_max":0,"o":"m 275 0 l 400 0 l 429 278 l 500 278 l 511 386 l 440 386 l 467 640 l 538 640 l 549 749 l 478 749 l 501 972 l 376 972 l 353 749 l 263 749 l 286 972 l 161 972 l 138 749 l 68 749 l 57 640 l 126 640 l 100 386 l 32 386 l 21 278 l 89 278 l 60 0 l 185 0 l 214 278 l 304 278 z m 251 640 l 342 640 l 315 386 l 225 386 z "},"$":{"ha":550,"x_min":0,"x_max":0,"o":"m 51 725 b 219 438 51 614 94 536 b 350 238 322 357 350 307 b 271 143 350 168 319 143 b 192 238 222 143 192 168 l 192 314 l 47 314 l 47 247 b 213 8 47 115 103 31 l 213 -62 l 338 -62 l 338 8 b 503 247 446 31 503 115 b 335 535 503 358 460 435 b 204 735 232 617 204 665 b 281 831 204 804 232 831 b 357 735 329 831 357 804 l 357 694 l 501 694 l 501 725 b 338 963 501 857 446 940 l 338 1035 l 213 1035 l 213 963 b 51 725 106 939 51 856 z "},"%":{"ha":871,"x_min":0,"x_max":0,"o":"m 144 831 b 194 892 144 874 163 892 b 244 831 225 892 244 874 l 244 497 b 194 436 244 454 225 436 b 144 497 163 436 144 454 z m 47 504 b 194 349 47 404 99 349 b 342 504 290 349 342 404 l 342 824 b 194 979 342 924 290 979 b 47 824 99 979 47 924 z m 194 0 l 285 0 l 668 972 l 578 972 z m 626 475 b 676 536 626 518 644 536 b 726 475 707 536 726 518 l 726 142 b 676 81 726 99 707 81 b 626 142 644 81 626 99 z m 529 149 b 676 -7 529 49 581 -7 b 824 149 772 -7 824 49 l 824 468 b 676 624 824 568 772 624 b 529 468 581 624 529 568 z "},"&":{"ha":575,"x_min":0,"x_max":0,"o":"m 57 310 l 57 211 b 226 -11 57 68 114 -11 b 365 76 294 -11 339 19 l 368 76 b 382 0 371 33 375 19 l 538 0 b 521 118 522 36 521 71 l 521 438 l 561 438 l 561 576 l 521 576 l 521 685 l 368 685 l 368 576 l 301 576 b 210 679 244 576 210 601 l 210 739 b 288 833 210 808 239 833 l 460 833 l 460 972 l 285 972 b 57 732 132 972 57 888 l 57 714 b 163 515 57 610 90 546 l 163 513 b 57 310 88 479 57 408 z m 210 224 l 210 314 b 310 438 210 404 240 438 l 368 438 l 368 213 b 289 128 365 151 335 128 b 210 224 240 128 210 154 z "},"'":{"ha":250,"x_min":0,"x_max":0,"o":"m 72 686 l 176 686 l 199 972 l 51 972 z "},"(":{"ha":349,"x_min":0,"x_max":0,"o":"m 279 972 b 65 760 126 972 65 915 l 65 213 b 279 0 65 57 126 0 l 326 0 l 326 125 l 289 125 b 218 213 240 125 218 143 l 218 760 b 289 847 218 829 240 847 l 326 847 l 326 972 z "},")":{"ha":349,"x_min":0,"x_max":0,"o":"m 22 972 l 22 847 l 60 847 b 131 760 108 847 131 829 l 131 213 b 60 125 131 143 108 125 l 22 125 l 22 0 l 69 0 b 283 213 222 0 283 57 l 283 760 b 69 972 283 915 222 972 z "},"*":{"ha":550,"x_min":0,"x_max":0,"o":"m 42 847 l 3 729 l 231 690 l 68 528 l 168 454 l 275 660 l 382 454 l 482 528 l 319 690 l 547 729 l 508 847 l 301 743 l 338 972 l 213 972 l 249 743 z "},"+":{"ha":550,"x_min":0,"x_max":0,"o":"m 329 728 l 221 728 l 221 540 l 35 540 l 35 432 l 221 432 l 221 242 l 329 242 l 329 432 l 515 432 l 515 540 l 329 540 z "},",":{"ha":258,"x_min":0,"x_max":0,"o":"m 114 0 l 74 -139 l 136 -139 l 203 15 l 203 147 l 56 147 l 56 0 z "},"-":{"ha":375,"x_min":0,"x_max":0,"o":"m 49 417 l 326 417 l 326 556 l 49 556 z "},".":{"ha":258,"x_min":0,"x_max":0,"o":"m 56 147 l 56 0 l 203 0 l 203 147 z "},"/":{"ha":529,"x_min":0,"x_max":0,"o":"m 7 0 l 139 0 l 522 972 l 390 972 z "},":":{"ha":258,"x_min":0,"x_max":0,"o":"m 56 147 l 56 0 l 203 0 l 203 147 z m 56 676 l 56 529 l 203 529 l 203 676 z "},";":{"ha":258,"x_min":0,"x_max":0,"o":"m 114 0 l 74 -139 l 136 -139 l 203 15 l 203 147 l 56 147 l 56 0 z m 56 676 l 56 529 l 203 529 l 203 676 z "},"<":{"ha":550,"x_min":0,"x_max":0,"o":"m 494 265 l 494 375 l 183 486 l 494 597 l 494 707 l 42 540 l 42 432 z "},"=":{"ha":550,"x_min":0,"x_max":0,"o":"m 49 428 l 49 319 l 501 319 l 501 428 z m 49 653 l 49 544 l 501 544 l 501 653 z "},">":{"ha":550,"x_min":0,"x_max":0,"o":"m 508 432 l 508 540 l 56 707 l 56 597 l 367 486 l 56 375 l 56 265 z "},"?":{"ha":500,"x_min":0,"x_max":0,"o":"m 303 215 b 297 269 299 233 297 251 b 375 460 297 332 315 379 b 478 739 450 560 478 635 b 253 983 478 894 401 983 b 28 739 104 983 28 894 l 28 643 l 172 643 l 172 749 b 249 844 172 818 200 844 b 325 749 297 844 325 818 b 238 494 325 656 306 592 b 158 275 178 410 158 353 b 167 215 158 250 161 232 z m 160 147 l 160 0 l 307 0 l 307 147 z "},"@":{"ha":957,"x_min":0,"x_max":0,"o":"m 661 176 b 932 619 768 176 932 278 b 546 1028 932 844 839 1028 b 33 403 203 1028 33 746 b 479 -83 33 115 167 -83 b 764 -6 582 -83 672 -67 l 775 128 b 488 33 678 53 590 33 b 164 396 267 33 164 172 b 540 910 164 713 293 910 b 817 617 733 910 817 790 b 706 303 817 475 783 303 b 678 338 683 303 675 314 l 719 739 l 590 739 l 578 660 l 575 660 b 461 744 557 714 519 744 b 294 539 364 744 308 675 l 279 399 b 276 351 278 383 276 367 b 407 185 276 246 322 185 b 538 268 468 185 510 211 l 540 268 b 661 176 546 203 590 176 z m 426 524 b 506 611 433 589 463 611 b 567 550 540 611 567 592 b 565 533 567 546 567 542 l 551 401 b 474 314 544 338 515 313 b 413 385 436 315 413 336 b 414 406 413 392 413 394 z "},"A":{"ha":565,"x_min":0,"x_max":0,"o":"m 394 972 l 171 972 l 15 0 l 156 0 l 182 176 l 369 176 l 396 0 l 550 0 z m 274 800 l 276 800 l 349 308 l 201 308 z "},"B":{"ha":564,"x_min":0,"x_max":0,"o":"m 286 972 l 56 972 l 56 0 l 296 0 b 528 231 449 0 528 81 l 528 310 b 414 517 528 413 496 485 l 414 519 b 513 714 482 551 513 614 l 513 749 b 286 972 513 899 444 972 z m 276 438 b 375 319 346 438 375 410 l 375 235 b 296 139 375 163 347 139 l 208 139 l 208 438 z m 282 833 b 360 733 336 833 360 803 l 360 679 b 268 576 360 601 325 576 l 208 576 l 208 833 z "},"C":{"ha":536,"x_min":0,"x_max":0,"o":"m 354 363 l 354 224 b 275 129 354 154 324 129 b 196 224 226 129 196 154 l 196 749 b 275 844 196 818 226 844 b 354 749 324 844 354 818 l 354 644 l 499 644 l 499 739 b 271 983 499 894 421 983 b 43 739 121 983 43 894 l 43 233 b 271 -11 43 78 121 -11 b 499 233 421 -11 499 78 l 499 363 z "},"D":{"ha":567,"x_min":0,"x_max":0,"o":"m 56 0 l 297 0 b 525 240 450 0 525 85 l 525 732 b 297 972 525 888 450 972 l 56 972 z m 294 833 b 372 739 343 833 372 808 l 372 233 b 294 139 372 164 343 139 l 208 139 l 208 833 z "},"E":{"ha":511,"x_min":0,"x_max":0,"o":"m 208 833 l 472 833 l 472 972 l 56 972 l 56 0 l 472 0 l 472 139 l 208 139 l 208 424 l 418 424 l 418 563 l 208 563 z "},"F":{"ha":478,"x_min":0,"x_max":0,"o":"m 208 833 l 460 833 l 460 972 l 56 972 l 56 0 l 208 0 l 208 401 l 406 401 l 406 540 l 208 540 z "},"G":{"ha":542,"x_min":0,"x_max":0,"o":"m 285 403 l 354 403 l 354 224 b 275 129 354 154 324 129 b 196 224 226 129 196 154 l 196 749 b 275 844 196 818 226 844 b 354 749 324 844 354 818 l 354 644 l 499 644 l 499 739 b 271 983 499 894 421 983 b 43 739 121 983 43 894 l 43 233 b 271 -11 43 78 121 -11 b 499 233 421 -11 499 78 l 499 542 l 285 542 z "},"H":{"ha":593,"x_min":0,"x_max":0,"o":"m 208 417 l 382 417 l 382 0 l 538 0 l 538 972 l 382 972 l 382 556 l 208 556 l 208 972 l 56 972 l 56 0 l 208 0 z "},"I":{"ha":264,"x_min":0,"x_max":0,"o":"m 56 0 l 208 0 l 208 972 l 56 972 z "},"J":{"ha":356,"x_min":0,"x_max":0,"o":"m 14 0 b 88 -3 39 -3 60 -3 b 307 242 203 -3 307 47 l 307 972 l 154 972 l 154 231 b 67 138 154 156 115 138 b 14 139 50 138 31 138 z "},"K":{"ha":575,"x_min":0,"x_max":0,"o":"m 404 0 l 561 0 l 349 539 l 561 972 l 408 972 l 211 551 l 208 551 l 208 972 l 56 972 l 56 0 l 208 0 l 208 299 l 256 388 z "},"L":{"ha":471,"x_min":0,"x_max":0,"o":"m 56 0 l 460 0 l 460 139 l 208 139 l 208 972 l 56 972 z "},"M":{"ha":751,"x_min":0,"x_max":0,"o":"m 267 972 l 54 972 l 54 0 l 188 0 l 188 688 l 190 688 l 301 0 l 446 0 l 549 697 l 551 697 l 551 0 l 696 0 l 696 972 l 483 972 l 381 282 l 378 282 z "},"N":{"ha":593,"x_min":0,"x_max":0,"o":"m 382 0 l 539 0 l 539 972 l 403 972 l 403 390 l 400 390 l 246 972 l 54 972 l 54 0 l 192 0 l 192 704 l 194 704 z "},"O":{"ha":550,"x_min":0,"x_max":0,"o":"m 196 749 b 275 844 196 818 226 844 b 354 749 324 844 354 818 l 354 224 b 275 128 354 154 324 128 b 196 224 226 128 196 154 z m 43 233 b 275 -11 43 78 125 -11 b 507 233 425 -11 507 78 l 507 739 b 275 983 507 894 425 983 b 43 739 125 983 43 894 z "},"P":{"ha":524,"x_min":0,"x_max":0,"o":"m 281 972 l 56 972 l 56 0 l 208 0 l 208 365 l 281 365 b 508 606 433 365 508 450 l 508 732 b 281 972 508 888 433 972 z m 281 833 b 356 742 329 833 356 811 l 356 596 b 281 504 356 526 329 504 l 208 504 l 208 833 z "},"Q":{"ha":550,"x_min":0,"x_max":0,"o":"m 43 233 b 275 -11 43 78 125 -11 b 382 7 315 -11 351 -4 b 514 -60 403 -35 446 -60 l 535 -60 l 535 76 l 521 76 b 478 97 496 76 485 79 b 507 233 497 133 507 179 l 507 739 b 275 983 507 894 425 983 b 43 739 125 983 43 894 z m 196 749 b 275 844 196 818 226 844 b 354 749 324 844 354 818 l 354 224 b 275 128 354 154 324 128 b 196 224 226 128 196 154 z "},"R":{"ha":558,"x_min":0,"x_max":0,"o":"m 531 0 b 514 118 515 36 514 71 l 514 268 b 413 474 514 369 489 442 l 413 476 b 513 672 481 508 513 572 l 513 749 b 286 972 513 899 444 972 l 56 972 l 56 0 l 208 0 l 208 396 l 261 396 b 361 272 331 396 361 363 l 361 119 b 375 0 361 40 367 25 z m 282 833 b 360 733 336 833 360 803 l 360 638 b 268 535 360 560 325 535 l 208 535 l 208 833 z "},"S":{"ha":519,"x_min":0,"x_max":0,"o":"m 36 739 b 204 435 36 628 76 547 b 335 224 304 347 335 294 b 256 129 335 154 304 129 b 176 224 207 129 176 154 l 176 293 l 32 293 l 32 233 b 260 -11 32 78 110 -11 b 488 233 410 -11 488 78 b 319 538 488 344 447 425 b 189 749 219 625 189 678 b 265 844 189 818 217 844 b 342 749 314 844 342 818 l 342 708 l 486 708 l 486 739 b 261 983 486 894 410 983 b 36 739 113 983 36 894 z "},"T":{"ha":494,"x_min":0,"x_max":0,"o":"m 11 833 l 171 833 l 171 0 l 324 0 l 324 833 l 483 833 l 483 972 l 11 972 z "},"U":{"ha":553,"x_min":0,"x_max":0,"o":"m 49 972 l 49 232 b 276 -12 49 76 126 -12 b 504 232 426 -12 504 76 l 504 972 l 360 972 l 360 222 b 281 128 360 153 329 128 b 201 222 232 128 201 153 l 201 972 z "},"V":{"ha":558,"x_min":0,"x_max":0,"o":"m 169 972 l 15 972 l 165 0 l 393 0 l 543 972 l 403 972 l 288 179 l 285 179 z "},"W":{"ha":782,"x_min":0,"x_max":0,"o":"m 450 0 l 653 0 l 761 972 l 628 972 l 550 200 l 547 200 l 472 972 l 325 972 l 253 206 l 250 206 l 169 972 l 21 972 l 129 0 l 339 0 l 393 518 l 396 518 z "},"X":{"ha":597,"x_min":0,"x_max":0,"o":"m 424 972 l 307 614 l 304 614 l 190 972 l 32 972 l 192 500 l 21 0 l 164 0 l 289 385 l 292 385 l 415 0 l 576 0 l 406 500 l 565 972 z "},"Y":{"ha":550,"x_min":0,"x_max":0,"o":"m 199 0 l 351 0 l 351 322 l 544 972 l 399 972 l 283 529 l 281 529 l 165 972 l 6 972 l 199 322 z "},"Z":{"ha":514,"x_min":0,"x_max":0,"o":"m 46 972 l 46 833 l 322 833 l 32 136 l 32 0 l 479 0 l 479 139 l 189 139 l 479 836 l 479 972 z "},"[":{"ha":349,"x_min":0,"x_max":0,"o":"m 65 0 l 318 0 l 318 125 l 218 125 l 218 847 l 318 847 l 318 972 l 65 972 z "},"\\":{"ha":529,"x_min":0,"x_max":0,"o":"m 139 972 l 7 972 l 390 0 l 522 0 z "},"]":{"ha":349,"x_min":0,"x_max":0,"o":"m 283 972 l 31 972 l 31 847 l 131 847 l 131 125 l 31 125 l 31 0 l 283 0 z "},"^":{"ha":550,"x_min":0,"x_max":0,"o":"m 28 542 l 150 542 l 275 833 l 400 542 l 522 542 l 329 972 l 221 972 z "},"_":{"ha":694,"x_min":0,"x_max":0,"o":"m 0 -125 l 694 -125 l 694 -14 l 0 -14 z "},"`":{"ha":347,"x_min":0,"x_max":0,"o":"m 61 1178 l 203 1024 l 313 1024 l 218 1178 z "},"a":{"ha":565,"x_min":0,"x_max":0,"o":"m 394 972 l 171 972 l 15 0 l 156 0 l 182 176 l 369 176 l 396 0 l 550 0 z m 274 800 l 276 800 l 349 308 l 201 308 z "},"b":{"ha":564,"x_min":0,"x_max":0,"o":"m 286 972 l 56 972 l 56 0 l 296 0 b 528 231 449 0 528 81 l 528 310 b 414 517 528 413 496 485 l 414 519 b 513 714 482 551 513 614 l 513 749 b 286 972 513 899 444 972 z m 276 438 b 375 319 346 438 375 410 l 375 235 b 296 139 375 163 347 139 l 208 139 l 208 438 z m 282 833 b 360 733 336 833 360 803 l 360 679 b 268 576 360 601 325 576 l 208 576 l 208 833 z "},"c":{"ha":536,"x_min":0,"x_max":0,"o":"m 354 363 l 354 224 b 275 129 354 154 324 129 b 196 224 226 129 196 154 l 196 749 b 275 844 196 818 226 844 b 354 749 324 844 354 818 l 354 644 l 499 644 l 499 739 b 271 983 499 894 421 983 b 43 739 121 983 43 894 l 43 233 b 271 -11 43 78 121 -11 b 499 233 421 -11 499 78 l 499 363 z "},"d":{"ha":567,"x_min":0,"x_max":0,"o":"m 56 0 l 297 0 b 525 240 450 0 525 85 l 525 732 b 297 972 525 888 450 972 l 56 972 z m 294 833 b 372 739 343 833 372 808 l 372 233 b 294 139 372 164 343 139 l 208 139 l 208 833 z "},"e":{"ha":511,"x_min":0,"x_max":0,"o":"m 208 833 l 472 833 l 472 972 l 56 972 l 56 0 l 472 0 l 472 139 l 208 139 l 208 424 l 418 424 l 418 563 l 208 563 z "},"f":{"ha":478,"x_min":0,"x_max":0,"o":"m 208 833 l 460 833 l 460 972 l 56 972 l 56 0 l 208 0 l 208 401 l 406 401 l 406 540 l 208 540 z "},"g":{"ha":542,"x_min":0,"x_max":0,"o":"m 285 403 l 354 403 l 354 224 b 275 129 354 154 324 129 b 196 224 226 129 196 154 l 196 749 b 275 844 196 818 226 844 b 354 749 324 844 354 818 l 354 644 l 499 644 l 499 739 b 271 983 499 894 421 983 b 43 739 121 983 43 894 l 43 233 b 271 -11 43 78 121 -11 b 499 233 421 -11 499 78 l 499 542 l 285 542 z "},"h":{"ha":593,"x_min":0,"x_max":0,"o":"m 208 417 l 382 417 l 382 0 l 538 0 l 538 972 l 382 972 l 382 556 l 208 556 l 208 972 l 56 972 l 56 0 l 208 0 z "},"i":{"ha":264,"x_min":0,"x_max":0,"o":"m 56 0 l 208 0 l 208 972 l 56 972 z "},"j":{"ha":356,"x_min":0,"x_max":0,"o":"m 14 0 b 88 -3 39 -3 60 -3 b 307 242 203 -3 307 47 l 307 972 l 154 972 l 154 231 b 67 138 154 156 115 138 b 14 139 50 138 31 138 z "},"k":{"ha":575,"x_min":0,"x_max":0,"o":"m 404 0 l 561 0 l 349 539 l 561 972 l 408 972 l 211 551 l 208 551 l 208 972 l 56 972 l 56 0 l 208 0 l 208 299 l 256 388 z "},"l":{"ha":471,"x_min":0,"x_max":0,"o":"m 56 0 l 460 0 l 460 139 l 208 139 l 208 972 l 56 972 z "},"m":{"ha":751,"x_min":0,"x_max":0,"o":"m 267 972 l 54 972 l 54 0 l 188 0 l 188 688 l 190 688 l 301 0 l 446 0 l 549 697 l 551 697 l 551 0 l 696 0 l 696 972 l 483 972 l 381 282 l 378 282 z "},"n":{"ha":593,"x_min":0,"x_max":0,"o":"m 382 0 l 539 0 l 539 972 l 403 972 l 403 390 l 400 390 l 246 972 l 54 972 l 54 0 l 192 0 l 192 704 l 194 704 z "},"o":{"ha":550,"x_min":0,"x_max":0,"o":"m 196 749 b 275 844 196 818 226 844 b 354 749 324 844 354 818 l 354 224 b 275 128 354 154 324 128 b 196 224 226 128 196 154 z m 43 233 b 275 -11 43 78 125 -11 b 507 233 425 -11 507 78 l 507 739 b 275 983 507 894 425 983 b 43 739 125 983 43 894 z "},"p":{"ha":524,"x_min":0,"x_max":0,"o":"m 281 972 l 56 972 l 56 0 l 208 0 l 208 365 l 281 365 b 508 606 433 365 508 450 l 508 732 b 281 972 508 888 433 972 z m 281 833 b 356 742 329 833 356 811 l 356 596 b 281 504 356 526 329 504 l 208 504 l 208 833 z "},"q":{"ha":550,"x_min":0,"x_max":0,"o":"m 43 233 b 275 -11 43 78 125 -11 b 382 7 315 -11 351 -4 b 514 -60 403 -35 446 -60 l 535 -60 l 535 76 l 521 76 b 478 97 496 76 485 79 b 507 233 497 133 507 179 l 507 739 b 275 983 507 894 425 983 b 43 739 125 983 43 894 z m 196 749 b 275 844 196 818 226 844 b 354 749 324 844 354 818 l 354 224 b 275 128 354 154 324 128 b 196 224 226 128 196 154 z "},"r":{"ha":558,"x_min":0,"x_max":0,"o":"m 531 0 b 514 118 515 36 514 71 l 514 268 b 413 474 514 369 489 442 l 413 476 b 513 672 481 508 513 572 l 513 749 b 286 972 513 899 444 972 l 56 972 l 56 0 l 208 0 l 208 396 l 261 396 b 361 272 331 396 361 363 l 361 119 b 375 0 361 40 367 25 z m 282 833 b 360 733 336 833 360 803 l 360 638 b 268 535 360 560 325 535 l 208 535 l 208 833 z "},"s":{"ha":519,"x_min":0,"x_max":0,"o":"m 36 739 b 204 435 36 628 76 547 b 335 224 304 347 335 294 b 256 129 335 154 304 129 b 176 224 207 129 176 154 l 176 293 l 32 293 l 32 233 b 260 -11 32 78 110 -11 b 488 233 410 -11 488 78 b 319 538 488 344 447 425 b 189 749 219 625 189 678 b 265 844 189 818 217 844 b 342 749 314 844 342 818 l 342 708 l 486 708 l 486 739 b 261 983 486 894 410 983 b 36 739 113 983 36 894 z "},"t":{"ha":494,"x_min":0,"x_max":0,"o":"m 11 833 l 171 833 l 171 0 l 324 0 l 324 833 l 483 833 l 483 972 l 11 972 z "},"u":{"ha":553,"x_min":0,"x_max":0,"o":"m 49 972 l 49 232 b 276 -12 49 76 126 -12 b 504 232 426 -12 504 76 l 504 972 l 360 972 l 360 222 b 281 128 360 153 329 128 b 201 222 232 128 201 153 l 201 972 z "},"v":{"ha":558,"x_min":0,"x_max":0,"o":"m 169 972 l 15 972 l 165 0 l 393 0 l 543 972 l 403 972 l 288 179 l 285 179 z "},"w":{"ha":782,"x_min":0,"x_max":0,"o":"m 450 0 l 653 0 l 761 972 l 628 972 l 550 200 l 547 200 l 472 972 l 325 972 l 253 206 l 250 206 l 169 972 l 21 972 l 129 0 l 339 0 l 393 518 l 396 518 z "},"x":{"ha":597,"x_min":0,"x_max":0,"o":"m 424 972 l 307 614 l 304 614 l 190 972 l 32 972 l 192 500 l 21 0 l 164 0 l 289 385 l 292 385 l 415 0 l 576 0 l 406 500 l 565 972 z "},"y":{"ha":550,"x_min":0,"x_max":0,"o":"m 199 0 l 351 0 l 351 322 l 544 972 l 399 972 l 283 529 l 281 529 l 165 972 l 6 972 l 199 322 z "},"z":{"ha":514,"x_min":0,"x_max":0,"o":"m 46 972 l 46 833 l 322 833 l 32 136 l 32 0 l 479 0 l 479 139 l 189 139 l 479 836 l 479 972 z "},"{":{"ha":357,"x_min":0,"x_max":0,"o":"m 142 486 b 232 610 213 504 229 558 l 239 749 b 313 847 243 825 264 847 l 335 847 l 335 972 l 257 972 b 103 818 171 972 110 924 l 92 632 b 15 549 88 568 74 549 l 15 424 b 92 340 74 424 88 404 l 103 154 b 257 0 110 49 171 0 l 335 0 l 335 125 l 313 125 b 239 224 264 125 243 147 l 232 363 b 142 486 229 414 213 468 z "},"|":{"ha":694,"x_min":0,"x_max":0,"o":"m 292 -90 l 417 -90 l 417 1063 l 292 1063 z "},"}":{"ha":357,"x_min":0,"x_max":0,"o":"m 215 486 b 125 363 144 468 128 414 l 118 224 b 44 125 114 147 93 125 l 22 125 l 22 0 l 100 0 b 254 154 186 0 247 49 l 265 340 b 342 424 269 404 283 424 l 342 549 b 265 632 283 549 269 568 l 254 818 b 100 972 247 924 186 972 l 22 972 l 22 847 l 44 847 b 118 749 93 847 114 825 l 125 610 b 215 486 128 558 144 504 z "},"~":{"ha":550,"x_min":0,"x_max":0,"o":"m 83 392 b 175 471 128 456 146 471 b 263 432 196 471 217 463 b 374 386 315 397 344 386 b 539 506 435 386 481 419 l 467 581 b 375 501 419 515 404 501 b 288 540 354 501 333 510 b 176 586 235 575 206 586 b 11 461 118 586 72 551 z "}," ":{"ha":215,"x_min":0,"x_max":0,"o":""},"¡":{"ha":264,"x_min":0,"x_max":0,"o":"m 75 757 l 56 406 l 56 0 l 208 0 l 208 406 l 189 757 z m 206 825 l 206 972 l 58 972 l 58 825 z "},"¢":{"ha":550,"x_min":0,"x_max":0,"o":"m 213 -21 l 338 -21 l 338 50 b 506 289 449 71 506 156 l 506 390 l 361 390 l 361 279 b 282 185 361 210 331 185 b 203 279 233 185 203 210 l 203 693 b 282 789 203 763 233 789 b 361 693 331 789 361 763 l 361 617 l 506 617 l 506 683 b 338 922 506 817 449 900 l 338 993 l 213 993 l 213 921 b 50 683 106 897 50 814 l 50 289 b 213 51 50 157 106 74 z "},"£":{"ha":550,"x_min":0,"x_max":0,"o":"m 61 292 l 174 292 b 42 133 171 192 114 133 l 42 0 l 496 0 l 496 139 l 233 139 b 311 292 275 172 304 221 l 469 292 l 469 410 l 301 410 b 265 508 296 433 292 451 b 208 749 221 603 208 665 b 285 844 208 818 236 844 b 361 749 333 844 361 818 l 361 643 l 506 643 l 506 739 b 281 983 506 894 429 983 b 56 739 132 983 56 894 b 119 488 56 649 71 586 b 154 410 138 453 147 432 l 61 410 l 61 292 z "},"¤":{"ha":550,"x_min":0,"x_max":0,"o":"m 186 486 b 275 575 186 535 226 575 b 364 486 324 575 364 535 b 275 397 364 438 324 397 b 186 486 226 397 186 438 z m 44 315 l 104 256 l 181 332 b 275 307 208 315 240 307 b 368 332 308 307 342 315 l 446 256 l 506 315 l 428 393 b 454 486 444 419 454 451 b 428 579 454 519 444 551 l 506 657 l 446 717 l 368 639 b 275 665 340 656 308 665 b 182 639 240 665 208 656 l 104 717 l 44 657 l 121 579 b 96 486 104 553 96 519 b 121 392 96 451 104 419 z "},"¥":{"ha":550,"x_min":0,"x_max":0,"o":"m 394 972 l 283 543 l 281 543 l 169 972 l 10 972 l 186 376 l 72 376 l 72 300 l 199 300 l 199 238 l 72 238 l 72 161 l 199 161 l 199 0 l 351 0 l 351 161 l 478 161 l 478 238 l 351 238 l 351 300 l 478 300 l 478 376 l 363 376 l 540 972 z "},"¦":{"ha":694,"x_min":0,"x_max":0,"o":"m 292 569 l 417 569 l 417 1063 l 292 1063 z m 292 -90 l 417 -90 l 417 403 l 292 403 z "},"§":{"ha":550,"x_min":0,"x_max":0,"o":"m 49 436 b 242 197 49 326 101 256 b 347 103 325 163 347 138 b 271 25 347 53 319 25 b 194 108 222 25 194 58 l 194 157 l 50 157 l 50 88 b 275 -101 50 -24 126 -101 b 500 96 424 -101 500 -15 b 403 274 500 190 457 240 l 403 276 b 500 446 467 313 500 375 b 307 685 500 556 447 628 b 201 779 225 718 201 744 b 278 857 201 829 229 857 b 354 774 326 857 354 824 l 354 744 l 499 744 l 499 794 b 274 983 499 906 422 983 b 49 786 125 983 49 897 b 144 607 49 690 92 642 l 144 604 b 49 436 81 568 49 507 z m 194 442 b 268 546 194 496 225 539 b 354 440 328 518 354 486 b 279 335 354 386 322 342 b 194 442 219 364 194 394 z "},"¨":{"ha":347,"x_min":0,"x_max":0,"o":"m 1 1157 l 1 1024 l 135 1024 l 135 1157 z m 213 1157 l 213 1024 l 346 1024 l 346 1157 z "},"©":{"ha":1022,"x_min":0,"x_max":0,"o":"m 563 428 l 563 344 b 508 279 563 296 542 279 b 454 344 475 279 454 296 l 454 628 b 508 694 454 676 475 694 b 563 628 542 694 563 676 l 563 569 l 663 569 l 663 619 b 506 792 663 731 610 792 b 349 619 401 792 349 731 l 349 350 b 506 181 349 242 401 181 b 663 350 610 181 663 242 l 663 428 z m 28 486 b 511 -11 28 197 236 -11 b 994 486 786 -11 994 197 b 511 983 994 775 786 983 b 28 486 236 983 28 775 z m 128 486 b 511 886 128 718 292 886 b 894 486 731 886 894 718 b 511 86 894 254 731 86 b 128 486 292 86 128 254 z "},"ª":{"ha":386,"x_min":0,"x_max":0,"o":"m 42 601 l 42 596 b 150 456 42 504 78 456 b 247 529 200 456 232 481 l 250 529 l 254 463 l 336 463 l 336 825 b 204 979 336 922 297 979 b 61 825 108 979 61 922 l 61 799 l 153 799 l 153 831 b 200 890 153 875 169 890 b 239 839 226 890 239 875 l 239 775 b 42 601 124 771 42 733 z m 42 399 l 42 303 l 336 303 l 336 399 z m 139 617 b 239 703 139 654 153 699 l 239 594 b 189 544 236 557 218 544 b 139 604 158 544 139 560 z "},"«":{"ha":493,"x_min":0,"x_max":0,"o":"m 108 844 l 22 488 l 108 108 l 246 108 l 161 488 l 246 844 z m 333 844 l 247 488 l 333 108 l 471 108 l 386 488 l 471 844 z "},"¬":{"ha":550,"x_min":0,"x_max":0,"o":"m 35 540 l 35 432 l 407 432 l 407 242 l 515 242 l 515 540 z "},"­":{"ha":375,"x_min":0,"x_max":0,"o":"m 49 417 l 326 417 l 326 556 l 49 556 z "},"®":{"ha":1022,"x_min":0,"x_max":0,"o":"m 28 486 b 511 -11 28 197 236 -11 b 994 486 786 -11 994 197 b 511 983 994 775 786 983 b 28 486 236 983 28 775 z m 128 486 b 511 886 128 718 292 886 b 894 486 731 886 894 718 b 511 86 894 254 731 86 b 128 486 292 86 128 254 z m 689 189 b 676 271 678 214 676 239 l 676 335 b 604 476 676 406 658 454 l 604 479 b 676 615 654 501 676 544 l 676 628 b 519 783 676 732 628 783 l 358 783 l 358 189 l 464 189 l 464 422 l 500 422 b 571 336 549 422 571 400 l 571 272 b 581 189 571 217 574 207 z m 514 686 b 571 615 554 686 571 664 l 571 590 b 507 519 571 536 546 519 l 464 519 l 464 686 z "},"¯":{"ha":347,"x_min":0,"x_max":0,"o":"m 14 1138 l 14 1029 l 333 1029 l 333 1138 z "},"°":{"ha":317,"x_min":0,"x_max":0,"o":"m 21 846 b 158 708 21 769 82 708 b 296 846 235 708 296 769 b 158 983 296 922 235 983 b 21 846 82 983 21 922 z m 90 846 b 158 914 90 883 121 914 b 226 846 196 914 226 883 b 158 778 226 808 196 778 b 90 846 121 778 90 808 z "},"±":{"ha":550,"x_min":0,"x_max":0,"o":"m 329 350 l 329 461 l 501 461 l 501 569 l 329 569 l 329 728 l 221 728 l 221 569 l 49 569 l 49 461 l 221 461 l 221 350 l 49 350 l 49 242 l 501 242 l 501 350 z "},"²":{"ha":389,"x_min":0,"x_max":0,"o":"m 250 956 b 154 760 250 888 226 835 b 58 563 81 682 58 631 l 58 488 l 339 488 l 339 575 l 156 575 b 154 589 154 578 154 581 b 228 713 154 621 168 649 b 347 958 318 808 347 876 b 203 1113 347 1058 297 1113 b 58 958 108 1113 58 1058 l 58 899 l 150 899 l 150 964 b 200 1025 150 1004 167 1025 b 250 956 235 1025 250 1004 z "},"³":{"ha":389,"x_min":0,"x_max":0,"o":"m 242 639 b 192 568 242 583 222 568 b 142 629 161 568 142 586 l 142 686 l 50 686 l 50 636 b 194 481 50 536 99 481 b 339 636 290 481 339 536 l 339 685 b 271 813 339 747 319 792 l 271 815 b 339 940 318 835 339 874 l 339 956 b 194 1111 339 1056 290 1111 b 50 956 99 1111 50 1056 l 50 924 l 142 924 l 142 963 b 192 1024 142 1006 161 1024 b 242 953 222 1024 242 1008 l 242 918 b 183 851 242 869 219 851 l 146 851 l 146 764 l 179 764 b 242 686 222 764 242 744 z "},"´":{"ha":347,"x_min":0,"x_max":0,"o":"m 132 1178 l 38 1024 l 140 1024 l 282 1178 z "},"µ":{"ha":550,"x_min":0,"x_max":0,"o":"m 196 694 l 43 694 l 43 -129 l 196 -129 l 196 -8 b 229 -11 206 -10 217 -11 b 368 72 292 -11 340 18 l 368 0 l 507 0 l 507 694 l 354 694 l 354 224 b 275 128 354 154 324 128 b 196 224 226 128 196 154 z "},"¶":{"ha":550,"x_min":0,"x_max":0,"o":"m 494 972 l 247 972 b 19 732 94 972 19 888 l 19 606 b 197 368 19 467 81 368 l 197 -90 l 308 -90 l 308 861 l 383 861 l 383 -90 l 494 -90 z "},"·":{"ha":258,"x_min":0,"x_max":0,"o":"m 56 560 l 56 413 l 203 413 l 203 560 z "},"¸":{"ha":347,"x_min":0,"x_max":0,"o":"m 36 -124 b 169 -204 36 -187 93 -204 b 310 -119 251 -204 310 -194 b 207 -54 310 -71 275 -54 l 207 19 l 140 19 l 140 -79 l 154 -79 b 204 -115 188 -79 204 -89 b 169 -149 204 -139 193 -149 b 139 -121 154 -149 139 -142 l 139 -110 l 36 -110 z "},"¹":{"ha":278,"x_min":0,"x_max":0,"o":"m 35 958 l 110 958 l 110 488 l 207 488 l 207 1104 l 143 1104 b 35 1026 126 1063 110 1026 z "},"º":{"ha":389,"x_min":0,"x_max":0,"o":"m 144 831 b 194 890 144 875 163 890 b 244 831 225 890 244 875 l 244 604 b 194 544 244 560 225 544 b 144 604 163 544 144 560 z m 47 610 b 194 456 47 513 99 456 b 342 610 290 456 342 513 l 342 825 b 194 979 342 922 290 979 b 47 825 99 979 47 922 z m 47 399 l 47 303 l 342 303 l 342 399 z "},"»":{"ha":493,"x_min":0,"x_max":0,"o":"m 247 844 l 332 488 l 247 108 l 385 108 l 471 488 l 385 844 z m 22 844 l 107 488 l 22 108 l 160 108 l 246 488 l 160 844 z "},"¼":{"ha":871,"x_min":0,"x_max":0,"o":"m 90 826 l 165 826 l 165 356 l 263 356 l 263 972 l 199 972 b 90 894 182 931 165 894 z m 222 0 l 313 0 l 696 972 l 606 972 z m 515 111 l 701 111 l 701 0 l 797 0 l 797 111 l 843 111 l 843 200 l 797 200 l 797 617 l 692 617 l 515 200 z m 603 200 l 699 428 l 701 428 l 701 200 z "},"½":{"ha":871,"x_min":0,"x_max":0,"o":"m 90 826 l 165 826 l 165 356 l 263 356 l 263 972 l 199 972 b 90 894 182 931 165 894 z m 181 0 l 271 0 l 654 972 l 564 972 z m 732 468 b 636 272 732 400 708 347 b 540 75 563 194 540 143 l 540 0 l 821 0 l 821 88 l 638 88 b 636 101 636 90 636 93 b 710 225 636 133 650 161 b 829 471 800 321 829 389 b 685 625 829 571 779 625 b 540 471 590 625 540 571 l 540 411 l 632 411 l 632 476 b 682 538 632 517 649 538 b 732 468 717 538 732 517 z "},"¾":{"ha":871,"x_min":0,"x_max":0,"o":"m 242 507 b 192 436 242 451 222 436 b 142 497 161 436 142 454 l 142 554 l 50 554 l 50 504 b 194 349 50 404 99 349 b 339 504 290 349 339 404 l 339 553 b 271 681 339 615 319 660 l 271 683 b 339 808 318 703 339 742 l 339 824 b 194 979 339 924 290 979 b 50 824 99 979 50 924 l 50 792 l 142 792 l 142 831 b 192 892 142 874 161 892 b 242 821 222 892 242 876 l 242 786 b 183 719 242 738 219 719 l 146 719 l 146 632 l 179 632 b 242 554 222 632 242 613 z m 236 0 l 326 0 l 710 972 l 619 972 z m 515 111 l 701 111 l 701 0 l 797 0 l 797 111 l 843 111 l 843 200 l 797 200 l 797 617 l 692 617 l 515 200 z m 603 200 l 699 428 l 701 428 l 701 200 z "},"¿":{"ha":500,"x_min":0,"x_max":0,"o":"m 197 757 b 203 703 201 739 203 721 b 125 513 203 640 185 593 b 22 233 50 413 22 338 b 247 -11 22 78 99 -11 b 472 233 396 -11 472 78 l 472 329 l 328 329 l 328 224 b 251 128 328 154 300 128 b 175 224 203 128 175 154 b 263 478 175 317 194 381 b 342 697 322 563 342 619 b 333 757 342 722 339 740 z m 340 825 l 340 972 l 193 972 l 193 825 z "},"À":{"ha":565,"x_min":0,"x_max":0,"o":"m 394 972 l 171 972 l 15 0 l 156 0 l 182 176 l 369 176 l 396 0 l 550 0 z m 274 800 l 276 800 l 349 308 l 201 308 z m 115 1178 l 257 1024 l 367 1024 l 272 1178 z "},"Á":{"ha":565,"x_min":0,"x_max":0,"o":"m 394 972 l 171 972 l 15 0 l 156 0 l 182 176 l 369 176 l 396 0 l 550 0 z m 274 800 l 276 800 l 349 308 l 201 308 z m 296 1178 l 201 1024 l 304 1024 l 446 1178 z "},"Â":{"ha":565,"x_min":0,"x_max":0,"o":"m 394 972 l 171 972 l 15 0 l 156 0 l 182 176 l 369 176 l 396 0 l 550 0 z m 274 800 l 276 800 l 349 308 l 201 308 z m 221 1024 l 282 1100 l 344 1024 l 475 1024 l 351 1178 l 214 1178 l 90 1024 z "},"Ã":{"ha":565,"x_min":0,"x_max":0,"o":"m 394 972 l 171 972 l 15 0 l 156 0 l 182 176 l 369 176 l 396 0 l 550 0 z m 274 800 l 276 800 l 349 308 l 201 308 z m 338 1129 b 286 1144 322 1129 308 1133 b 213 1164 258 1158 238 1164 b 94 1069 157 1164 118 1132 l 168 1018 b 228 1058 182 1047 197 1058 b 279 1043 243 1058 257 1054 b 353 1024 311 1028 331 1024 b 471 1118 408 1024 447 1056 l 397 1169 b 338 1129 383 1140 368 1129 z "},"Ä":{"ha":565,"x_min":0,"x_max":0,"o":"m 394 972 l 171 972 l 15 0 l 156 0 l 182 176 l 369 176 l 396 0 l 550 0 z m 274 800 l 276 800 l 349 308 l 201 308 z m 110 1157 l 110 1024 l 243 1024 l 243 1157 z m 321 1157 l 321 1024 l 454 1024 l 454 1157 z "},"Å":{"ha":565,"x_min":0,"x_max":0,"o":"m 394 972 l 171 972 l 15 0 l 156 0 l 182 176 l 369 176 l 396 0 l 550 0 z m 274 800 l 276 800 l 349 308 l 201 308 z m 171 1131 b 282 1019 171 1068 219 1019 b 393 1131 344 1019 393 1068 b 282 1242 393 1193 344 1242 b 171 1131 219 1242 171 1193 z m 240 1131 b 282 1172 240 1154 258 1172 b 324 1131 306 1172 324 1154 b 282 1089 324 1107 306 1089 b 240 1131 258 1089 240 1107 z "},"Æ":{"ha":806,"x_min":0,"x_max":0,"o":"m 350 0 l 767 0 l 767 139 l 503 139 l 503 424 l 713 424 l 713 563 l 503 563 l 503 833 l 767 833 l 767 972 l 265 972 l 6 0 l 151 0 l 196 176 l 350 176 z m 231 308 l 347 776 l 350 776 l 350 308 z "},"Ç":{"ha":536,"x_min":0,"x_max":0,"o":"m 354 363 l 354 224 b 275 129 354 154 324 129 b 196 224 226 129 196 154 l 196 749 b 275 844 196 818 226 844 b 354 749 324 844 354 818 l 354 644 l 499 644 l 499 739 b 271 983 499 894 421 983 b 43 739 121 983 43 894 l 43 233 b 235 -8 43 90 108 4 l 235 -79 l 249 -79 b 299 -115 282 -79 299 -89 b 264 -149 299 -139 288 -149 b 233 -121 249 -149 233 -142 l 233 -110 l 131 -110 l 131 -124 b 264 -204 131 -187 188 -204 b 404 -119 346 -204 404 -194 b 301 -54 404 -71 369 -54 l 301 -10 b 499 233 431 1 499 89 l 499 363 z "},"È":{"ha":511,"x_min":0,"x_max":0,"o":"m 208 833 l 472 833 l 472 972 l 56 972 l 56 0 l 472 0 l 472 139 l 208 139 l 208 424 l 418 424 l 418 563 l 208 563 z m 94 1178 l 236 1024 l 346 1024 l 251 1178 z "},"É":{"ha":511,"x_min":0,"x_max":0,"o":"m 208 833 l 472 833 l 472 972 l 56 972 l 56 0 l 472 0 l 472 139 l 208 139 l 208 424 l 418 424 l 418 563 l 208 563 z m 276 1178 l 182 1024 l 285 1024 l 426 1178 z "},"Ê":{"ha":511,"x_min":0,"x_max":0,"o":"m 208 833 l 472 833 l 472 972 l 56 972 l 56 0 l 472 0 l 472 139 l 208 139 l 208 424 l 418 424 l 418 563 l 208 563 z m 200 1024 l 261 1100 l 324 1024 l 454 1024 l 331 1178 l 193 1178 l 69 1024 z "},"Ë":{"ha":511,"x_min":0,"x_max":0,"o":"m 208 833 l 472 833 l 472 972 l 56 972 l 56 0 l 472 0 l 472 139 l 208 139 l 208 424 l 418 424 l 418 563 l 208 563 z m 90 1157 l 90 1024 l 224 1024 l 224 1157 z m 301 1157 l 301 1024 l 435 1024 l 435 1157 z "},"Ì":{"ha":264,"x_min":0,"x_max":0,"o":"m 56 0 l 208 0 l 208 972 l 56 972 z m -35 1178 l 107 1024 l 217 1024 l 122 1178 z "},"Í":{"ha":264,"x_min":0,"x_max":0,"o":"m 56 0 l 208 0 l 208 972 l 56 972 z m 146 1178 l 51 1024 l 154 1024 l 296 1178 z "},"Î":{"ha":264,"x_min":0,"x_max":0,"o":"m 56 0 l 208 0 l 208 972 l 56 972 z m 71 1024 l 132 1100 l 194 1024 l 325 1024 l 201 1178 l 64 1178 l -60 1024 z "},"Ï":{"ha":264,"x_min":0,"x_max":0,"o":"m 56 0 l 208 0 l 208 972 l 56 972 z m -40 1157 l -40 1024 l 93 1024 l 93 1157 z m 171 1157 l 171 1024 l 304 1024 l 304 1157 z "},"Ð":{"ha":567,"x_min":0,"x_max":0,"o":"m 56 0 l 297 0 b 525 240 450 0 525 85 l 525 732 b 297 972 525 888 450 972 l 56 972 l 56 549 l 6 549 l 6 424 l 56 424 z m 294 833 b 372 739 343 833 372 808 l 372 233 b 294 139 372 164 343 139 l 208 139 l 208 424 l 303 424 l 303 549 l 208 549 l 208 833 z "},"Ñ":{"ha":593,"x_min":0,"x_max":0,"o":"m 382 0 l 539 0 l 539 972 l 403 972 l 403 390 l 400 390 l 246 972 l 54 972 l 54 0 l 192 0 l 192 704 l 194 704 z m 351 1129 b 300 1144 336 1129 322 1133 b 226 1164 272 1158 251 1164 b 108 1069 171 1164 132 1132 l 182 1018 b 242 1058 196 1047 211 1058 b 293 1043 257 1058 271 1054 b 367 1024 325 1028 344 1024 b 485 1118 422 1024 461 1056 l 411 1169 b 351 1129 397 1140 382 1129 z "},"Ò":{"ha":550,"x_min":0,"x_max":0,"o":"m 196 749 b 275 844 196 818 226 844 b 354 749 324 844 354 818 l 354 224 b 275 128 354 154 324 128 b 196 224 226 128 196 154 z m 43 233 b 275 -11 43 78 125 -11 b 507 233 425 -11 507 78 l 507 739 b 275 983 507 894 425 983 b 43 739 125 983 43 894 z m 107 1178 l 249 1024 l 358 1024 l 264 1178 z "},"Ó":{"ha":550,"x_min":0,"x_max":0,"o":"m 196 749 b 275 844 196 818 226 844 b 354 749 324 844 354 818 l 354 224 b 275 128 354 154 324 128 b 196 224 226 128 196 154 z m 43 233 b 275 -11 43 78 125 -11 b 507 233 425 -11 507 78 l 507 739 b 275 983 507 894 425 983 b 43 739 125 983 43 894 z m 289 1178 l 194 1024 l 297 1024 l 439 1178 z "},"Ô":{"ha":550,"x_min":0,"x_max":0,"o":"m 196 749 b 275 844 196 818 226 844 b 354 749 324 844 354 818 l 354 224 b 275 128 354 154 324 128 b 196 224 226 128 196 154 z m 43 233 b 275 -11 43 78 125 -11 b 507 233 425 -11 507 78 l 507 739 b 275 983 507 894 425 983 b 43 739 125 983 43 894 z m 213 1024 l 274 1100 l 336 1024 l 467 1024 l 343 1178 l 206 1178 l 82 1024 z "},"Õ":{"ha":550,"x_min":0,"x_max":0,"o":"m 196 749 b 275 844 196 818 226 844 b 354 749 324 844 354 818 l 354 224 b 275 128 354 154 324 128 b 196 224 226 128 196 154 z m 43 233 b 275 -11 43 78 125 -11 b 507 233 425 -11 507 78 l 507 739 b 275 983 507 894 425 983 b 43 739 125 983 43 894 z m 331 1129 b 279 1144 315 1129 301 1133 b 206 1164 251 1158 231 1164 b 88 1069 150 1164 111 1132 l 161 1018 b 221 1058 175 1047 190 1058 b 272 1043 236 1058 250 1054 b 346 1024 304 1028 324 1024 b 464 1118 401 1024 440 1056 l 390 1169 b 331 1129 376 1140 361 1129 z "},"Ö":{"ha":550,"x_min":0,"x_max":0,"o":"m 196 749 b 275 844 196 818 226 844 b 354 749 324 844 354 818 l 354 224 b 275 128 354 154 324 128 b 196 224 226 128 196 154 z m 43 233 b 275 -11 43 78 125 -11 b 507 233 425 -11 507 78 l 507 739 b 275 983 507 894 425 983 b 43 739 125 983 43 894 z m 103 1157 l 103 1024 l 236 1024 l 236 1157 z m 314 1157 l 314 1024 l 447 1024 l 447 1157 z "},"×":{"ha":550,"x_min":0,"x_max":0,"o":"m 128 706 l 54 632 l 200 486 l 53 339 l 126 265 l 275 413 l 422 265 l 496 339 l 349 486 l 496 633 l 422 707 l 275 560 z "},"Ø":{"ha":550,"x_min":0,"x_max":0,"o":"m 43 233 b 92 64 43 163 60 106 l 57 -33 l 108 -51 l 136 24 b 275 -11 172 0 219 -11 b 507 233 425 -11 507 78 l 507 739 b 457 907 507 810 490 867 l 493 1006 l 442 1024 l 414 947 b 275 983 378 971 331 983 b 43 739 125 983 43 894 z m 351 615 l 354 615 l 354 224 b 275 128 354 154 324 128 b 197 194 233 128 206 146 z m 196 749 b 275 844 196 818 226 844 b 351 778 315 844 344 825 l 199 357 l 196 357 z "},"Ù":{"ha":553,"x_min":0,"x_max":0,"o":"m 49 972 l 49 232 b 276 -12 49 76 126 -12 b 504 232 426 -12 504 76 l 504 972 l 360 972 l 360 222 b 281 128 360 153 329 128 b 201 222 232 128 201 153 l 201 972 z m 110 1178 l 251 1024 l 361 1024 l 267 1178 z "},"Ú":{"ha":553,"x_min":0,"x_max":0,"o":"m 49 972 l 49 232 b 276 -12 49 76 126 -12 b 504 232 426 -12 504 76 l 504 972 l 360 972 l 360 222 b 281 128 360 153 329 128 b 201 222 232 128 201 153 l 201 972 z m 292 1178 l 197 1024 l 300 1024 l 442 1178 z "},"Û":{"ha":553,"x_min":0,"x_max":0,"o":"m 49 972 l 49 232 b 276 -12 49 76 126 -12 b 504 232 426 -12 504 76 l 504 972 l 360 972 l 360 222 b 281 128 360 153 329 128 b 201 222 232 128 201 153 l 201 972 z m 217 1024 l 278 1100 l 340 1024 l 471 1024 l 347 1178 l 210 1178 l 86 1024 z "},"Ü":{"ha":553,"x_min":0,"x_max":0,"o":"m 49 972 l 49 232 b 276 -12 49 76 126 -12 b 504 232 426 -12 504 76 l 504 972 l 360 972 l 360 222 b 281 128 360 153 329 128 b 201 222 232 128 201 153 l 201 972 z m 107 1157 l 107 1024 l 240 1024 l 240 1157 z m 318 1157 l 318 1024 l 451 1024 l 451 1157 z "},"Ý":{"ha":550,"x_min":0,"x_max":0,"o":"m 199 0 l 351 0 l 351 322 l 544 972 l 399 972 l 283 529 l 281 529 l 165 972 l 6 972 l 199 322 z m 294 1178 l 200 1024 l 303 1024 l 444 1178 z "},"Þ":{"ha":524,"x_min":0,"x_max":0,"o":"m 56 0 l 208 0 l 208 254 l 281 254 b 508 494 433 254 508 339 l 508 621 b 281 861 508 776 433 861 l 208 861 l 208 972 l 56 972 z m 281 722 b 356 631 329 722 356 700 l 356 485 b 281 393 356 415 329 393 l 208 393 l 208 722 z "},"ß":{"ha":1039,"x_min":0,"x_max":0,"o":"m 36 739 b 204 435 36 628 76 547 b 335 224 304 347 335 294 b 256 129 335 154 304 129 b 176 224 207 129 176 154 l 176 293 l 32 293 l 32 233 b 260 -11 32 78 110 -11 b 488 233 410 -11 488 78 b 319 538 488 344 447 425 b 189 749 219 625 189 678 b 265 844 189 818 217 844 b 342 749 314 844 342 818 l 342 708 l 486 708 l 486 739 b 261 983 486 894 410 983 b 36 739 113 983 36 894 z m 556 739 b 724 435 556 628 596 547 b 854 224 824 347 854 294 b 775 129 854 154 824 129 b 696 224 726 129 696 154 l 696 293 l 551 293 l 551 233 b 779 -11 551 78 629 -11 b 1007 233 929 -11 1007 78 b 839 538 1007 344 967 425 b 708 749 739 625 708 678 b 785 844 708 818 736 844 b 861 749 833 844 861 818 l 861 708 l 1006 708 l 1006 739 b 781 983 1006 894 929 983 b 556 739 632 983 556 894 z "},"à":{"ha":565,"x_min":0,"x_max":0,"o":"m 394 972 l 171 972 l 15 0 l 156 0 l 182 176 l 369 176 l 396 0 l 550 0 z m 274 800 l 276 800 l 349 308 l 201 308 z m 115 1178 l 257 1024 l 367 1024 l 272 1178 z "},"á":{"ha":565,"x_min":0,"x_max":0,"o":"m 394 972 l 171 972 l 15 0 l 156 0 l 182 176 l 369 176 l 396 0 l 550 0 z m 274 800 l 276 800 l 349 308 l 201 308 z m 296 1178 l 201 1024 l 304 1024 l 446 1178 z "},"â":{"ha":565,"x_min":0,"x_max":0,"o":"m 394 972 l 171 972 l 15 0 l 156 0 l 182 176 l 369 176 l 396 0 l 550 0 z m 274 800 l 276 800 l 349 308 l 201 308 z m 221 1024 l 282 1100 l 344 1024 l 475 1024 l 351 1178 l 214 1178 l 90 1024 z "},"ã":{"ha":565,"x_min":0,"x_max":0,"o":"m 394 972 l 171 972 l 15 0 l 156 0 l 182 176 l 369 176 l 396 0 l 550 0 z m 274 800 l 276 800 l 349 308 l 201 308 z m 338 1129 b 286 1144 322 1129 308 1133 b 213 1164 258 1158 238 1164 b 94 1069 157 1164 118 1132 l 168 1018 b 228 1058 182 1047 197 1058 b 279 1043 243 1058 257 1054 b 353 1024 311 1028 331 1024 b 471 1118 408 1024 447 1056 l 397 1169 b 338 1129 383 1140 368 1129 z "},"ä":{"ha":565,"x_min":0,"x_max":0,"o":"m 394 972 l 171 972 l 15 0 l 156 0 l 182 176 l 369 176 l 396 0 l 550 0 z m 274 800 l 276 800 l 349 308 l 201 308 z m 110 1157 l 110 1024 l 243 1024 l 243 1157 z m 321 1157 l 321 1024 l 454 1024 l 454 1157 z "},"å":{"ha":565,"x_min":0,"x_max":0,"o":"m 394 972 l 171 972 l 15 0 l 156 0 l 182 176 l 369 176 l 396 0 l 550 0 z m 274 800 l 276 800 l 349 308 l 201 308 z m 171 1131 b 282 1019 171 1068 219 1019 b 393 1131 344 1019 393 1068 b 282 1242 393 1193 344 1242 b 171 1131 219 1242 171 1193 z m 240 1131 b 282 1172 240 1154 258 1172 b 324 1131 306 1172 324 1154 b 282 1089 324 1107 306 1089 b 240 1131 258 1089 240 1107 z "},"æ":{"ha":806,"x_min":0,"x_max":0,"o":"m 503 833 l 767 833 l 767 972 l 265 972 l 6 0 l 151 0 l 196 176 l 350 176 l 350 0 l 767 0 l 767 139 l 503 139 l 503 424 l 713 424 l 713 563 l 503 563 z m 231 308 l 347 776 l 350 776 l 350 308 z "},"ç":{"ha":536,"x_min":0,"x_max":0,"o":"m 354 363 l 354 224 b 275 129 354 154 324 129 b 196 224 226 129 196 154 l 196 749 b 275 844 196 818 226 844 b 354 749 324 844 354 818 l 354 644 l 499 644 l 499 739 b 271 983 499 894 421 983 b 43 739 121 983 43 894 l 43 233 b 235 -8 43 90 108 4 l 235 -79 l 249 -79 b 299 -115 282 -79 299 -89 b 264 -149 299 -139 288 -149 b 233 -121 249 -149 233 -142 l 233 -110 l 131 -110 l 131 -124 b 264 -204 131 -187 188 -204 b 404 -119 346 -204 404 -194 b 301 -54 404 -71 369 -54 l 301 -10 b 499 233 431 1 499 89 l 499 363 z "},"è":{"ha":511,"x_min":0,"x_max":0,"o":"m 208 833 l 472 833 l 472 972 l 56 972 l 56 0 l 472 0 l 472 139 l 208 139 l 208 424 l 418 424 l 418 563 l 208 563 z m 94 1178 l 236 1024 l 346 1024 l 251 1178 z "},"é":{"ha":511,"x_min":0,"x_max":0,"o":"m 208 833 l 472 833 l 472 972 l 56 972 l 56 0 l 472 0 l 472 139 l 208 139 l 208 424 l 418 424 l 418 563 l 208 563 z m 276 1178 l 182 1024 l 285 1024 l 426 1178 z "},"ê":{"ha":511,"x_min":0,"x_max":0,"o":"m 208 833 l 472 833 l 472 972 l 56 972 l 56 0 l 472 0 l 472 139 l 208 139 l 208 424 l 418 424 l 418 563 l 208 563 z m 200 1024 l 261 1100 l 324 1024 l 454 1024 l 331 1178 l 193 1178 l 69 1024 z "},"ë":{"ha":511,"x_min":0,"x_max":0,"o":"m 208 833 l 472 833 l 472 972 l 56 972 l 56 0 l 472 0 l 472 139 l 208 139 l 208 424 l 418 424 l 418 563 l 208 563 z m 90 1157 l 90 1024 l 224 1024 l 224 1157 z m 301 1157 l 301 1024 l 435 1024 l 435 1157 z "},"ì":{"ha":264,"x_min":0,"x_max":0,"o":"m 56 0 l 208 0 l 208 972 l 56 972 z m -35 1178 l 107 1024 l 217 1024 l 122 1178 z "},"í":{"ha":264,"x_min":0,"x_max":0,"o":"m 56 0 l 208 0 l 208 972 l 56 972 z m 146 1178 l 51 1024 l 154 1024 l 296 1178 z "},"î":{"ha":264,"x_min":0,"x_max":0,"o":"m 56 0 l 208 0 l 208 972 l 56 972 z m 71 1024 l 132 1100 l 194 1024 l 325 1024 l 201 1178 l 64 1178 l -60 1024 z "},"ï":{"ha":264,"x_min":0,"x_max":0,"o":"m 56 0 l 208 0 l 208 972 l 56 972 z m -40 1157 l -40 1024 l 93 1024 l 93 1157 z m 171 1157 l 171 1024 l 304 1024 l 304 1157 z "},"ð":{"ha":567,"x_min":0,"x_max":0,"o":"m 56 0 l 297 0 b 525 240 450 0 525 85 l 525 732 b 297 972 525 888 450 972 l 56 972 l 56 549 l 6 549 l 6 424 l 56 424 z m 294 833 b 372 739 343 833 372 808 l 372 233 b 294 139 372 164 343 139 l 208 139 l 208 424 l 303 424 l 303 549 l 208 549 l 208 833 z "},"ñ":{"ha":593,"x_min":0,"x_max":0,"o":"m 382 0 l 539 0 l 539 972 l 403 972 l 403 390 l 400 390 l 246 972 l 54 972 l 54 0 l 192 0 l 192 704 l 194 704 z m 351 1129 b 300 1144 336 1129 322 1133 b 226 1164 272 1158 251 1164 b 108 1069 171 1164 132 1132 l 182 1018 b 242 1058 196 1047 211 1058 b 293 1043 257 1058 271 1054 b 367 1024 325 1028 344 1024 b 485 1118 422 1024 461 1056 l 411 1169 b 351 1129 397 1140 382 1129 z "},"ò":{"ha":550,"x_min":0,"x_max":0,"o":"m 196 749 b 275 844 196 818 226 844 b 354 749 324 844 354 818 l 354 224 b 275 128 354 154 324 128 b 196 224 226 128 196 154 z m 43 233 b 275 -11 43 78 125 -11 b 507 233 425 -11 507 78 l 507 739 b 275 983 507 894 425 983 b 43 739 125 983 43 894 z m 107 1178 l 249 1024 l 358 1024 l 264 1178 z "},"ó":{"ha":550,"x_min":0,"x_max":0,"o":"m 196 749 b 275 844 196 818 226 844 b 354 749 324 844 354 818 l 354 224 b 275 128 354 154 324 128 b 196 224 226 128 196 154 z m 43 233 b 275 -11 43 78 125 -11 b 507 233 425 -11 507 78 l 507 739 b 275 983 507 894 425 983 b 43 739 125 983 43 894 z m 289 1178 l 194 1024 l 297 1024 l 439 1178 z "},"ô":{"ha":550,"x_min":0,"x_max":0,"o":"m 196 749 b 275 844 196 818 226 844 b 354 749 324 844 354 818 l 354 224 b 275 128 354 154 324 128 b 196 224 226 128 196 154 z m 43 233 b 275 -11 43 78 125 -11 b 507 233 425 -11 507 78 l 507 739 b 275 983 507 894 425 983 b 43 739 125 983 43 894 z m 213 1024 l 274 1100 l 336 1024 l 467 1024 l 343 1178 l 206 1178 l 82 1024 z "},"õ":{"ha":550,"x_min":0,"x_max":0,"o":"m 196 749 b 275 844 196 818 226 844 b 354 749 324 844 354 818 l 354 224 b 275 128 354 154 324 128 b 196 224 226 128 196 154 z m 43 233 b 275 -11 43 78 125 -11 b 507 233 425 -11 507 78 l 507 739 b 275 983 507 894 425 983 b 43 739 125 983 43 894 z m 331 1129 b 279 1144 315 1129 301 1133 b 206 1164 251 1158 231 1164 b 88 1069 150 1164 111 1132 l 161 1018 b 221 1058 175 1047 190 1058 b 272 1043 236 1058 250 1054 b 346 1024 304 1028 324 1024 b 464 1118 401 1024 440 1056 l 390 1169 b 331 1129 376 1140 361 1129 z "},"ö":{"ha":550,"x_min":0,"x_max":0,"o":"m 196 749 b 275 844 196 818 226 844 b 354 749 324 844 354 818 l 354 224 b 275 128 354 154 324 128 b 196 224 226 128 196 154 z m 43 233 b 275 -11 43 78 125 -11 b 507 233 425 -11 507 78 l 507 739 b 275 983 507 894 425 983 b 43 739 125 983 43 894 z m 103 1157 l 103 1024 l 236 1024 l 236 1157 z m 314 1157 l 314 1024 l 447 1024 l 447 1157 z "},"÷":{"ha":550,"x_min":0,"x_max":0,"o":"m 201 347 l 201 200 l 349 200 l 349 347 z m 201 771 l 201 624 l 349 624 l 349 771 z m 35 540 l 35 432 l 515 432 l 515 540 z "},"ø":{"ha":550,"x_min":0,"x_max":0,"o":"m 43 233 b 92 64 43 163 60 106 l 57 -33 l 108 -51 l 136 24 b 275 -11 172 0 219 -11 b 507 233 425 -11 507 78 l 507 739 b 457 907 507 810 490 867 l 493 1006 l 442 1024 l 414 947 b 275 983 378 971 331 983 b 43 739 125 983 43 894 z m 351 615 l 354 615 l 354 224 b 275 128 354 154 324 128 b 197 194 233 128 206 146 z m 196 749 b 275 844 196 818 226 844 b 351 778 315 844 344 825 l 199 357 l 196 357 z "},"ù":{"ha":553,"x_min":0,"x_max":0,"o":"m 49 972 l 49 232 b 276 -12 49 76 126 -12 b 504 232 426 -12 504 76 l 504 972 l 360 972 l 360 222 b 281 128 360 153 329 128 b 201 222 232 128 201 153 l 201 972 z m 110 1178 l 251 1024 l 361 1024 l 267 1178 z "},"ú":{"ha":553,"x_min":0,"x_max":0,"o":"m 49 972 l 49 232 b 276 -12 49 76 126 -12 b 504 232 426 -12 504 76 l 504 972 l 360 972 l 360 222 b 281 128 360 153 329 128 b 201 222 232 128 201 153 l 201 972 z m 292 1178 l 197 1024 l 300 1024 l 442 1178 z "},"û":{"ha":553,"x_min":0,"x_max":0,"o":"m 49 972 l 49 232 b 276 -12 49 76 126 -12 b 504 232 426 -12 504 76 l 504 972 l 360 972 l 360 222 b 281 128 360 153 329 128 b 201 222 232 128 201 153 l 201 972 z m 217 1024 l 278 1100 l 340 1024 l 471 1024 l 347 1178 l 210 1178 l 86 1024 z "},"ü":{"ha":553,"x_min":0,"x_max":0,"o":"m 49 972 l 49 232 b 276 -12 49 76 126 -12 b 504 232 426 -12 504 76 l 504 972 l 360 972 l 360 222 b 281 128 360 153 329 128 b 201 222 232 128 201 153 l 201 972 z m 107 1157 l 107 1024 l 240 1024 l 240 1157 z m 318 1157 l 318 1024 l 451 1024 l 451 1157 z "},"ý":{"ha":550,"x_min":0,"x_max":0,"o":"m 199 0 l 351 0 l 351 322 l 544 972 l 399 972 l 283 529 l 281 529 l 165 972 l 6 972 l 199 322 z m 294 1178 l 200 1024 l 303 1024 l 444 1178 z "},"þ":{"ha":524,"x_min":0,"x_max":0,"o":"m 56 0 l 208 0 l 208 254 l 281 254 b 508 494 433 254 508 339 l 508 621 b 281 861 508 776 433 861 l 208 861 l 208 972 l 56 972 z m 281 722 b 356 631 329 722 356 700 l 356 485 b 281 393 356 415 329 393 l 208 393 l 208 722 z "},"ÿ":{"ha":550,"x_min":0,"x_max":0,"o":"m 199 0 l 351 0 l 351 322 l 544 972 l 399 972 l 283 529 l 281 529 l 165 972 l 6 972 l 199 322 z m 108 1157 l 108 1024 l 242 1024 l 242 1157 z m 319 1157 l 319 1024 l 453 1024 l 453 1157 z "},"Ā":{"ha":565,"x_min":0,"x_max":0,"o":"m 394 972 l 171 972 l 15 0 l 156 0 l 182 176 l 369 176 l 396 0 l 550 0 z m 274 800 l 276 800 l 349 308 l 201 308 z m 122 1138 l 122 1029 l 442 1029 l 442 1138 z "},"ā":{"ha":565,"x_min":0,"x_max":0,"o":"m 394 972 l 171 972 l 15 0 l 156 0 l 182 176 l 369 176 l 396 0 l 550 0 z m 274 800 l 276 800 l 349 308 l 201 308 z m 122 1138 l 122 1029 l 442 1029 l 442 1138 z "},"Ă":{"ha":565,"x_min":0,"x_max":0,"o":"m 394 972 l 171 972 l 15 0 l 156 0 l 182 176 l 369 176 l 396 0 l 550 0 z m 274 800 l 276 800 l 349 308 l 201 308 z m 347 1178 b 281 1113 343 1125 321 1113 b 217 1178 242 1113 221 1125 l 126 1178 b 281 1018 128 1081 176 1018 b 438 1178 385 1018 438 1081 l 347 1178 z "},"ă":{"ha":565,"x_min":0,"x_max":0,"o":"m 394 972 l 171 972 l 15 0 l 156 0 l 182 176 l 369 176 l 396 0 l 550 0 z m 274 800 l 276 800 l 349 308 l 201 308 z m 347 1178 b 281 1113 343 1125 321 1113 b 217 1178 242 1113 221 1125 l 126 1178 b 281 1018 128 1081 176 1018 b 438 1178 385 1018 438 1081 l 347 1178 z "},"Ą":{"ha":565,"x_min":0,"x_max":0,"o":"m 394 972 l 171 972 l 15 0 l 156 0 l 182 176 l 369 176 l 400 -17 b 335 -118 356 -46 335 -81 b 456 -204 335 -175 382 -204 b 550 -189 494 -204 518 -201 l 550 -111 b 500 -119 535 -115 528 -119 b 451 -81 475 -119 451 -107 b 493 0 451 -61 458 -29 l 550 0 z m 274 800 l 276 800 l 349 308 l 201 308 z "},"ą":{"ha":565,"x_min":0,"x_max":0,"o":"m 394 972 l 171 972 l 15 0 l 156 0 l 182 176 l 369 176 l 400 -17 b 335 -118 356 -46 335 -81 b 456 -204 335 -175 382 -204 b 550 -189 494 -204 518 -201 l 550 -111 b 500 -119 535 -115 528 -119 b 451 -81 475 -119 451 -107 b 493 0 451 -61 458 -29 l 550 0 z m 274 800 l 276 800 l 349 308 l 201 308 z "},"Ć":{"ha":536,"x_min":0,"x_max":0,"o":"m 354 363 l 354 224 b 275 129 354 154 324 129 b 196 224 226 129 196 154 l 196 749 b 275 844 196 818 226 844 b 354 749 324 844 354 818 l 354 644 l 499 644 l 499 739 b 271 983 499 894 421 983 b 43 739 121 983 43 894 l 43 233 b 271 -11 43 78 121 -11 b 499 233 421 -11 499 78 l 499 363 z m 285 1178 l 190 1024 l 293 1024 l 435 1178 z "},"ć":{"ha":536,"x_min":0,"x_max":0,"o":"m 354 363 l 354 224 b 275 129 354 154 324 129 b 196 224 226 129 196 154 l 196 749 b 275 844 196 818 226 844 b 354 749 324 844 354 818 l 354 644 l 499 644 l 499 739 b 271 983 499 894 421 983 b 43 739 121 983 43 894 l 43 233 b 271 -11 43 78 121 -11 b 499 233 421 -11 499 78 l 499 363 z m 285 1178 l 190 1024 l 293 1024 l 435 1178 z "},"Ĉ":{"ha":536,"x_min":0,"x_max":0,"o":"m 354 363 l 354 224 b 275 129 354 154 324 129 b 196 224 226 129 196 154 l 196 749 b 275 844 196 818 226 844 b 354 749 324 844 354 818 l 354 644 l 499 644 l 499 739 b 271 983 499 894 421 983 b 43 739 121 983 43 894 l 43 233 b 271 -11 43 78 121 -11 b 499 233 421 -11 499 78 l 499 363 z m 208 1024 l 269 1100 l 332 1024 l 463 1024 l 339 1178 l 201 1178 l 78 1024 z "},"ĉ":{"ha":536,"x_min":0,"x_max":0,"o":"m 354 363 l 354 224 b 275 129 354 154 324 129 b 196 224 226 129 196 154 l 196 749 b 275 844 196 818 226 844 b 354 749 324 844 354 818 l 354 644 l 499 644 l 499 739 b 271 983 499 894 421 983 b 43 739 121 983 43 894 l 43 233 b 271 -11 43 78 121 -11 b 499 233 421 -11 499 78 l 499 363 z m 208 1024 l 269 1100 l 332 1024 l 463 1024 l 339 1178 l 201 1178 l 78 1024 z "},"Ċ":{"ha":536,"x_min":0,"x_max":0,"o":"m 354 363 l 354 224 b 275 129 354 154 324 129 b 196 224 226 129 196 154 l 196 749 b 275 844 196 818 226 844 b 354 749 324 844 354 818 l 354 644 l 499 644 l 499 739 b 271 983 499 894 421 983 b 43 739 121 983 43 894 l 43 233 b 271 -11 43 78 121 -11 b 499 233 421 -11 499 78 l 499 363 z m 204 1157 l 204 1024 l 338 1024 l 338 1157 z "},"ċ":{"ha":536,"x_min":0,"x_max":0,"o":"m 354 363 l 354 224 b 275 129 354 154 324 129 b 196 224 226 129 196 154 l 196 749 b 275 844 196 818 226 844 b 354 749 324 844 354 818 l 354 644 l 499 644 l 499 739 b 271 983 499 894 421 983 b 43 739 121 983 43 894 l 43 233 b 271 -11 43 78 121 -11 b 499 233 421 -11 499 78 l 499 363 z m 204 1157 l 204 1024 l 338 1024 l 338 1157 z "},"Č":{"ha":536,"x_min":0,"x_max":0,"o":"m 354 363 l 354 224 b 275 129 354 154 324 129 b 196 224 226 129 196 154 l 196 749 b 275 844 196 818 226 844 b 354 749 324 844 354 818 l 354 644 l 499 644 l 499 739 b 271 983 499 894 421 983 b 43 739 121 983 43 894 l 43 233 b 271 -11 43 78 121 -11 b 499 233 421 -11 499 78 l 499 363 z m 78 1178 l 201 1024 l 339 1024 l 463 1178 l 332 1178 l 269 1100 l 208 1178 z "},"č":{"ha":536,"x_min":0,"x_max":0,"o":"m 354 363 l 354 224 b 275 129 354 154 324 129 b 196 224 226 129 196 154 l 196 749 b 275 844 196 818 226 844 b 354 749 324 844 354 818 l 354 644 l 499 644 l 499 739 b 271 983 499 894 421 983 b 43 739 121 983 43 894 l 43 233 b 271 -11 43 78 121 -11 b 499 233 421 -11 499 78 l 499 363 z m 78 1178 l 201 1024 l 339 1024 l 463 1178 l 332 1178 l 269 1100 l 208 1178 z "},"Ď":{"ha":567,"x_min":0,"x_max":0,"o":"m 56 0 l 297 0 b 525 240 450 0 525 85 l 525 732 b 297 972 525 888 450 972 l 56 972 z m 294 833 b 372 739 343 833 372 808 l 372 233 b 294 139 372 164 343 139 l 208 139 l 208 833 z m 78 1178 l 201 1024 l 339 1024 l 463 1178 l 332 1178 l 269 1100 l 208 1178 z "},"ď":{"ha":567,"x_min":0,"x_max":0,"o":"m 56 0 l 297 0 b 525 240 450 0 525 85 l 525 732 b 297 972 525 888 450 972 l 56 972 z m 294 833 b 372 739 343 833 372 808 l 372 233 b 294 139 372 164 343 139 l 208 139 l 208 833 z m 78 1178 l 201 1024 l 339 1024 l 463 1178 l 332 1178 l 269 1100 l 208 1178 z "},"Đ":{"ha":567,"x_min":0,"x_max":0,"o":"m 56 0 l 297 0 b 525 240 450 0 525 85 l 525 732 b 297 972 525 888 450 972 l 56 972 l 56 549 l 6 549 l 6 424 l 56 424 z m 294 833 b 372 739 343 833 372 808 l 372 233 b 294 139 372 164 343 139 l 208 139 l 208 424 l 303 424 l 303 549 l 208 549 l 208 833 z "},"đ":{"ha":567,"x_min":0,"x_max":0,"o":"m 56 0 l 297 0 b 525 240 450 0 525 85 l 525 732 b 297 972 525 888 450 972 l 56 972 l 56 549 l 6 549 l 6 424 l 56 424 z m 294 833 b 372 739 343 833 372 808 l 372 233 b 294 139 372 164 343 139 l 208 139 l 208 424 l 303 424 l 303 549 l 208 549 l 208 833 z "},"Ē":{"ha":511,"x_min":0,"x_max":0,"o":"m 208 833 l 472 833 l 472 972 l 56 972 l 56 0 l 472 0 l 472 139 l 208 139 l 208 424 l 418 424 l 418 563 l 208 563 z m 101 1138 l 101 1029 l 421 1029 l 421 1138 z "},"ē":{"ha":511,"x_min":0,"x_max":0,"o":"m 208 833 l 472 833 l 472 972 l 56 972 l 56 0 l 472 0 l 472 139 l 208 139 l 208 424 l 418 424 l 418 563 l 208 563 z m 101 1138 l 101 1029 l 421 1029 l 421 1138 z "},"Ĕ":{"ha":511,"x_min":0,"x_max":0,"o":"m 208 833 l 472 833 l 472 972 l 56 972 l 56 0 l 472 0 l 472 139 l 208 139 l 208 424 l 418 424 l 418 563 l 208 563 z m 326 1178 b 260 1113 322 1125 300 1113 b 196 1178 221 1113 200 1125 l 106 1178 b 260 1018 107 1081 156 1018 b 417 1178 364 1018 417 1081 l 326 1178 z "},"ĕ":{"ha":511,"x_min":0,"x_max":0,"o":"m 208 833 l 472 833 l 472 972 l 56 972 l 56 0 l 472 0 l 472 139 l 208 139 l 208 424 l 418 424 l 418 563 l 208 563 z m 326 1178 b 260 1113 322 1125 300 1113 b 196 1178 221 1113 200 1125 l 106 1178 b 260 1018 107 1081 156 1018 b 417 1178 364 1018 417 1081 l 326 1178 z "},"Ė":{"ha":511,"x_min":0,"x_max":0,"o":"m 208 833 l 472 833 l 472 972 l 56 972 l 56 0 l 472 0 l 472 139 l 208 139 l 208 424 l 418 424 l 418 563 l 208 563 z m 194 1157 l 194 1024 l 328 1024 l 328 1157 z "},"ė":{"ha":511,"x_min":0,"x_max":0,"o":"m 208 833 l 472 833 l 472 972 l 56 972 l 56 0 l 472 0 l 472 139 l 208 139 l 208 424 l 418 424 l 418 563 l 208 563 z m 194 1157 l 194 1024 l 328 1024 l 328 1157 z "},"Ę":{"ha":511,"x_min":0,"x_max":0,"o":"m 208 833 l 472 833 l 472 972 l 56 972 l 56 0 l 347 0 l 347 -3 b 257 -118 285 -35 257 -74 b 378 -204 257 -175 304 -204 b 472 -189 417 -204 440 -201 l 472 -111 b 422 -119 457 -115 450 -119 b 374 -81 397 -119 374 -107 b 415 0 374 -61 381 -29 l 472 0 l 472 139 l 208 139 l 208 424 l 418 424 l 418 563 l 208 563 z "},"ę":{"ha":511,"x_min":0,"x_max":0,"o":"m 208 833 l 472 833 l 472 972 l 56 972 l 56 0 l 347 0 l 347 -3 b 257 -118 285 -35 257 -74 b 378 -204 257 -175 304 -204 b 472 -189 417 -204 440 -201 l 472 -111 b 422 -119 457 -115 450 -119 b 374 -81 397 -119 374 -107 b 415 0 374 -61 381 -29 l 472 0 l 472 139 l 208 139 l 208 424 l 418 424 l 418 563 l 208 563 z "},"Ě":{"ha":511,"x_min":0,"x_max":0,"o":"m 208 833 l 472 833 l 472 972 l 56 972 l 56 0 l 472 0 l 472 139 l 208 139 l 208 424 l 418 424 l 418 563 l 208 563 z m 68 1178 l 192 1024 l 329 1024 l 453 1178 l 322 1178 l 260 1100 l 199 1178 z "},"ě":{"ha":511,"x_min":0,"x_max":0,"o":"m 208 833 l 472 833 l 472 972 l 56 972 l 56 0 l 472 0 l 472 139 l 208 139 l 208 424 l 418 424 l 418 563 l 208 563 z m 68 1178 l 192 1024 l 329 1024 l 453 1178 l 322 1178 l 260 1100 l 199 1178 z "},"Ĝ":{"ha":542,"x_min":0,"x_max":0,"o":"m 285 403 l 354 403 l 354 224 b 275 129 354 154 324 129 b 196 224 226 129 196 154 l 196 749 b 275 844 196 818 226 844 b 354 749 324 844 354 818 l 354 644 l 499 644 l 499 739 b 271 983 499 894 421 983 b 43 739 121 983 43 894 l 43 233 b 271 -11 43 78 121 -11 b 499 233 421 -11 499 78 l 499 542 l 285 542 z m 208 1024 l 269 1100 l 332 1024 l 463 1024 l 339 1178 l 201 1178 l 78 1024 z "},"ĝ":{"ha":542,"x_min":0,"x_max":0,"o":"m 285 403 l 354 403 l 354 224 b 275 129 354 154 324 129 b 196 224 226 129 196 154 l 196 749 b 275 844 196 818 226 844 b 354 749 324 844 354 818 l 354 644 l 499 644 l 499 739 b 271 983 499 894 421 983 b 43 739 121 983 43 894 l 43 233 b 271 -11 43 78 121 -11 b 499 233 421 -11 499 78 l 499 542 l 285 542 z m 208 1024 l 269 1100 l 332 1024 l 463 1024 l 339 1178 l 201 1178 l 78 1024 z "},"Ğ":{"ha":542,"x_min":0,"x_max":0,"o":"m 285 403 l 354 403 l 354 224 b 275 129 354 154 324 129 b 196 224 226 129 196 154 l 196 749 b 275 844 196 818 226 844 b 354 749 324 844 354 818 l 354 644 l 499 644 l 499 739 b 271 983 499 894 421 983 b 43 739 121 983 43 894 l 43 233 b 271 -11 43 78 121 -11 b 499 233 421 -11 499 78 l 499 542 l 285 542 z m 335 1178 b 268 1113 331 1125 308 1113 b 204 1178 229 1113 208 1125 l 114 1178 b 268 1018 115 1081 164 1018 b 425 1178 372 1018 425 1081 l 335 1178 z "},"ğ":{"ha":542,"x_min":0,"x_max":0,"o":"m 285 403 l 354 403 l 354 224 b 275 129 354 154 324 129 b 196 224 226 129 196 154 l 196 749 b 275 844 196 818 226 844 b 354 749 324 844 354 818 l 354 644 l 499 644 l 499 739 b 271 983 499 894 421 983 b 43 739 121 983 43 894 l 43 233 b 271 -11 43 78 121 -11 b 499 233 421 -11 499 78 l 499 542 l 285 542 z m 335 1178 b 268 1113 331 1125 308 1113 b 204 1178 229 1113 208 1125 l 114 1178 b 268 1018 115 1081 164 1018 b 425 1178 372 1018 425 1081 l 335 1178 z "},"Ġ":{"ha":542,"x_min":0,"x_max":0,"o":"m 285 403 l 354 403 l 354 224 b 275 129 354 154 324 129 b 196 224 226 129 196 154 l 196 749 b 275 844 196 818 226 844 b 354 749 324 844 354 818 l 354 644 l 499 644 l 499 739 b 271 983 499 894 421 983 b 43 739 121 983 43 894 l 43 233 b 271 -11 43 78 121 -11 b 499 233 421 -11 499 78 l 499 542 l 285 542 z m 203 1157 l 203 1024 l 336 1024 l 336 1157 z "},"ġ":{"ha":542,"x_min":0,"x_max":0,"o":"m 285 403 l 354 403 l 354 224 b 275 129 354 154 324 129 b 196 224 226 129 196 154 l 196 749 b 275 844 196 818 226 844 b 354 749 324 844 354 818 l 354 644 l 499 644 l 499 739 b 271 983 499 894 421 983 b 43 739 121 983 43 894 l 43 233 b 271 -11 43 78 121 -11 b 499 233 421 -11 499 78 l 499 542 l 285 542 z m 203 1157 l 203 1024 l 336 1024 l 336 1157 z "},"Ģ":{"ha":542,"x_min":0,"x_max":0,"o":"m 285 403 l 354 403 l 354 224 b 275 129 354 154 324 129 b 196 224 226 129 196 154 l 196 749 b 275 844 196 818 226 844 b 354 749 324 844 354 818 l 354 644 l 499 644 l 499 739 b 271 983 499 894 421 983 b 43 739 121 983 43 894 l 43 233 b 271 -11 43 78 121 -11 b 499 233 421 -11 499 78 l 499 542 l 285 542 z m 257 -174 l 221 -249 l 275 -249 l 335 -160 l 335 -46 l 207 -46 l 207 -174 z "},"ģ":{"ha":542,"x_min":0,"x_max":0,"o":"m 285 403 l 354 403 l 354 224 b 275 129 354 154 324 129 b 196 224 226 129 196 154 l 196 749 b 275 844 196 818 226 844 b 354 749 324 844 354 818 l 354 644 l 499 644 l 499 739 b 271 983 499 894 421 983 b 43 739 121 983 43 894 l 43 233 b 271 -11 43 78 121 -11 b 499 233 421 -11 499 78 l 499 542 l 285 542 z m 257 -174 l 221 -249 l 275 -249 l 335 -160 l 335 -46 l 207 -46 l 207 -174 z "},"Ĥ":{"ha":593,"x_min":0,"x_max":0,"o":"m 208 417 l 382 417 l 382 0 l 538 0 l 538 972 l 382 972 l 382 556 l 208 556 l 208 972 l 56 972 l 56 0 l 208 0 z m 235 1024 l 296 1100 l 358 1024 l 489 1024 l 365 1178 l 228 1178 l 104 1024 z "},"ĥ":{"ha":593,"x_min":0,"x_max":0,"o":"m 208 417 l 382 417 l 382 0 l 538 0 l 538 972 l 382 972 l 382 556 l 208 556 l 208 972 l 56 972 l 56 0 l 208 0 z m 235 1024 l 296 1100 l 358 1024 l 489 1024 l 365 1178 l 228 1178 l 104 1024 z "},"Ħ":{"ha":607,"x_min":0,"x_max":0,"o":"m 215 417 l 389 417 l 389 0 l 544 0 l 544 697 l 593 697 l 593 811 l 544 811 l 544 972 l 389 972 l 389 811 l 215 811 l 215 972 l 63 972 l 63 811 l 14 811 l 14 697 l 63 697 l 63 0 l 215 0 z m 215 556 l 215 697 l 389 697 l 389 556 z "},"ħ":{"ha":607,"x_min":0,"x_max":0,"o":"m 215 417 l 389 417 l 389 0 l 544 0 l 544 697 l 593 697 l 593 811 l 544 811 l 544 972 l 389 972 l 389 811 l 215 811 l 215 972 l 63 972 l 63 811 l 14 811 l 14 697 l 63 697 l 63 0 l 215 0 z m 215 556 l 215 697 l 389 697 l 389 556 z "},"Ĩ":{"ha":264,"x_min":0,"x_max":0,"o":"m 56 0 l 208 0 l 208 972 l 56 972 z m 188 1129 b 136 1144 172 1129 158 1133 b 63 1164 108 1158 88 1164 b -56 1069 7 1164 -32 1132 l 18 1018 b 78 1058 32 1047 47 1058 b 129 1043 93 1058 107 1054 b 203 1024 161 1028 181 1024 b 321 1118 258 1024 297 1056 l 247 1169 b 188 1129 233 1140 218 1129 z "},"ĩ":{"ha":264,"x_min":0,"x_max":0,"o":"m 56 0 l 208 0 l 208 972 l 56 972 z m 188 1129 b 136 1144 172 1129 158 1133 b 63 1164 108 1158 88 1164 b -56 1069 7 1164 -32 1132 l 18 1018 b 78 1058 32 1047 47 1058 b 129 1043 93 1058 107 1054 b 203 1024 161 1028 181 1024 b 321 1118 258 1024 297 1056 l 247 1169 b 188 1129 233 1140 218 1129 z "},"Ī":{"ha":264,"x_min":0,"x_max":0,"o":"m 56 0 l 208 0 l 208 972 l 56 972 z m -28 1138 l -28 1029 l 292 1029 l 292 1138 z "},"ī":{"ha":264,"x_min":0,"x_max":0,"o":"m 56 0 l 208 0 l 208 972 l 56 972 z m -28 1138 l -28 1029 l 292 1029 l 292 1138 z "},"Ĭ":{"ha":264,"x_min":0,"x_max":0,"o":"m 56 0 l 208 0 l 208 972 l 56 972 z m 197 1178 b 131 1113 193 1125 171 1113 b 67 1178 92 1113 71 1125 l -24 1178 b 131 1018 -22 1081 26 1018 b 288 1178 235 1018 288 1081 l 197 1178 z "},"ĭ":{"ha":264,"x_min":0,"x_max":0,"o":"m 56 0 l 208 0 l 208 972 l 56 972 z m 197 1178 b 131 1113 193 1125 171 1113 b 67 1178 92 1113 71 1125 l -24 1178 b 131 1018 -22 1081 26 1018 b 288 1178 235 1018 288 1081 l 197 1178 z "},"Į":{"ha":264,"x_min":0,"x_max":0,"o":"m 56 0 l 113 0 l 113 -3 b 22 -118 50 -35 22 -74 b 143 -204 22 -175 69 -204 b 238 -189 182 -204 206 -201 l 238 -111 b 188 -119 222 -115 215 -119 b 139 -81 163 -119 139 -107 b 181 0 139 -61 146 -29 l 208 0 l 208 972 l 56 972 z "},"į":{"ha":264,"x_min":0,"x_max":0,"o":"m 56 0 l 113 0 l 113 -3 b 22 -118 50 -35 22 -74 b 143 -204 22 -175 69 -204 b 238 -189 182 -204 206 -201 l 238 -111 b 188 -119 222 -115 215 -119 b 139 -81 163 -119 139 -107 b 181 0 139 -61 146 -29 l 208 0 l 208 972 l 56 972 z "},"İ":{"ha":264,"x_min":0,"x_max":0,"o":"m 56 0 l 208 0 l 208 972 l 56 972 z m 65 1157 l 65 1024 l 199 1024 l 199 1157 z "},"ı":{"ha":264,"x_min":0,"x_max":0,"o":"m 56 0 l 208 0 l 208 972 l 56 972 z "},"Ĳ":{"ha":619,"x_min":0,"x_max":0,"o":"m 56 0 l 208 0 l 208 972 l 56 972 z m 278 0 b 351 -3 303 -3 324 -3 b 571 242 467 -3 571 47 l 571 972 l 418 972 l 418 231 b 331 138 418 156 379 138 b 278 139 314 138 294 138 z "},"ĳ":{"ha":619,"x_min":0,"x_max":0,"o":"m 56 0 l 208 0 l 208 972 l 56 972 z m 278 0 b 351 -3 303 -3 324 -3 b 571 242 467 -3 571 47 l 571 972 l 418 972 l 418 231 b 331 138 418 156 379 138 b 278 139 314 138 294 138 z "},"Ĵ":{"ha":356,"x_min":0,"x_max":0,"o":"m 14 0 b 88 -3 39 -3 60 -3 b 307 242 203 -3 307 47 l 307 972 l 154 972 l 154 231 b 67 138 154 156 115 138 b 14 139 50 138 31 138 z m 143 1024 l 204 1100 l 267 1024 l 397 1024 l 274 1178 l 136 1178 l 13 1024 z "},"ĵ":{"ha":356,"x_min":0,"x_max":0,"o":"m 14 0 b 88 -3 39 -3 60 -3 b 307 242 203 -3 307 47 l 307 972 l 154 972 l 154 231 b 67 138 154 156 115 138 b 14 139 50 138 31 138 z m 143 1024 l 204 1100 l 267 1024 l 397 1024 l 274 1178 l 136 1178 l 13 1024 z "},"Ķ":{"ha":575,"x_min":0,"x_max":0,"o":"m 404 0 l 561 0 l 349 539 l 561 972 l 408 972 l 211 551 l 208 551 l 208 972 l 56 972 l 56 0 l 208 0 l 208 299 l 256 388 z m 285 -174 l 249 -249 l 303 -249 l 363 -160 l 363 -46 l 235 -46 l 235 -174 z "},"ķ":{"ha":575,"x_min":0,"x_max":0,"o":"m 404 0 l 561 0 l 349 539 l 561 972 l 408 972 l 211 551 l 208 551 l 208 972 l 56 972 l 56 0 l 208 0 l 208 299 l 256 388 z m 285 -174 l 249 -249 l 303 -249 l 363 -160 l 363 -46 l 235 -46 l 235 -174 z "},"ĸ":{"ha":575,"x_min":0,"x_max":0,"o":"m 404 0 l 561 0 l 349 539 l 561 972 l 408 972 l 211 551 l 208 551 l 208 972 l 56 972 l 56 0 l 208 0 l 208 299 l 256 388 z "},"Ĺ":{"ha":471,"x_min":0,"x_max":0,"o":"m 56 0 l 460 0 l 460 139 l 208 139 l 208 972 l 56 972 z m 194 1178 l 100 1024 l 203 1024 l 344 1178 z "},"ĺ":{"ha":471,"x_min":0,"x_max":0,"o":"m 56 0 l 460 0 l 460 139 l 208 139 l 208 972 l 56 972 z m 194 1178 l 100 1024 l 203 1024 l 344 1178 z "},"Ļ":{"ha":471,"x_min":0,"x_max":0,"o":"m 56 0 l 460 0 l 460 139 l 208 139 l 208 972 l 56 972 z m 244 -174 l 208 -249 l 263 -249 l 322 -160 l 322 -46 l 194 -46 l 194 -174 z "},"ļ":{"ha":471,"x_min":0,"x_max":0,"o":"m 56 0 l 460 0 l 460 139 l 208 139 l 208 972 l 56 972 z m 244 -174 l 208 -249 l 263 -249 l 322 -160 l 322 -46 l 194 -46 l 194 -174 z "},"Ľ":{"ha":471,"x_min":0,"x_max":0,"o":"m 56 0 l 460 0 l 460 139 l 208 139 l 208 972 l 56 972 z m 351 825 l 311 686 l 374 686 l 440 840 l 440 972 l 293 972 l 293 825 z "},"ľ":{"ha":471,"x_min":0,"x_max":0,"o":"m 56 0 l 460 0 l 460 139 l 208 139 l 208 972 l 56 972 z m 351 825 l 311 686 l 374 686 l 440 840 l 440 972 l 293 972 l 293 825 z "},"Ŀ":{"ha":471,"x_min":0,"x_max":0,"o":"m 56 0 l 460 0 l 460 139 l 208 139 l 208 972 l 56 972 z m 292 560 l 292 413 l 439 413 l 439 560 z "},"ŀ":{"ha":471,"x_min":0,"x_max":0,"o":"m 56 0 l 460 0 l 460 139 l 208 139 l 208 972 l 56 972 z m 292 560 l 292 413 l 439 413 l 439 560 z "},"Ł":{"ha":483,"x_min":0,"x_max":0,"o":"m 0 132 l 68 204 l 68 0 l 472 0 l 472 139 l 221 139 l 221 368 l 389 549 l 389 688 l 221 507 l 221 972 l 68 972 l 68 343 l 0 271 z "},"ł":{"ha":483,"x_min":0,"x_max":0,"o":"m 0 132 l 68 204 l 68 0 l 472 0 l 472 139 l 221 139 l 221 368 l 389 549 l 389 688 l 221 507 l 221 972 l 68 972 l 68 343 l 0 271 z "},"Ń":{"ha":593,"x_min":0,"x_max":0,"o":"m 382 0 l 539 0 l 539 972 l 403 972 l 403 390 l 400 390 l 246 972 l 54 972 l 54 0 l 192 0 l 192 704 l 194 704 z m 310 1178 l 215 1024 l 318 1024 l 460 1178 z "},"ń":{"ha":593,"x_min":0,"x_max":0,"o":"m 382 0 l 539 0 l 539 972 l 403 972 l 403 390 l 400 390 l 246 972 l 54 972 l 54 0 l 192 0 l 192 704 l 194 704 z m 310 1178 l 215 1024 l 318 1024 l 460 1178 z "},"Ņ":{"ha":593,"x_min":0,"x_max":0,"o":"m 382 0 l 539 0 l 539 972 l 403 972 l 403 390 l 400 390 l 246 972 l 54 972 l 54 0 l 192 0 l 192 704 l 194 704 z m 282 -174 l 246 -249 l 300 -249 l 360 -160 l 360 -46 l 232 -46 l 232 -174 z "},"ņ":{"ha":593,"x_min":0,"x_max":0,"o":"m 382 0 l 539 0 l 539 972 l 403 972 l 403 390 l 400 390 l 246 972 l 54 972 l 54 0 l 192 0 l 192 704 l 194 704 z m 282 -174 l 246 -249 l 300 -249 l 360 -160 l 360 -46 l 232 -46 l 232 -174 z "},"Ň":{"ha":593,"x_min":0,"x_max":0,"o":"m 382 0 l 539 0 l 539 972 l 403 972 l 403 390 l 400 390 l 246 972 l 54 972 l 54 0 l 192 0 l 192 704 l 194 704 z m 104 1178 l 228 1024 l 365 1024 l 489 1178 l 358 1178 l 296 1100 l 235 1178 z "},"ň":{"ha":593,"x_min":0,"x_max":0,"o":"m 382 0 l 539 0 l 539 972 l 403 972 l 403 390 l 400 390 l 246 972 l 54 972 l 54 0 l 192 0 l 192 704 l 194 704 z m 104 1178 l 228 1024 l 365 1024 l 489 1178 l 358 1178 l 296 1100 l 235 1178 z "},"ŉ":{"ha":754,"x_min":0,"x_max":0,"o":"m 543 0 l 700 0 l 700 972 l 564 972 l 564 390 l 561 390 l 407 972 l 215 972 l 215 0 l 353 0 l 353 704 l 356 704 z m 65 825 l 25 686 l 88 686 l 154 840 l 154 972 l 7 972 l 7 825 z "},"Ō":{"ha":550,"x_min":0,"x_max":0,"o":"m 196 749 b 275 844 196 818 226 844 b 354 749 324 844 354 818 l 354 224 b 275 128 354 154 324 128 b 196 224 226 128 196 154 z m 43 233 b 275 -11 43 78 125 -11 b 507 233 425 -11 507 78 l 507 739 b 275 983 507 894 425 983 b 43 739 125 983 43 894 z m 115 1138 l 115 1029 l 435 1029 l 435 1138 z "},"ō":{"ha":550,"x_min":0,"x_max":0,"o":"m 196 749 b 275 844 196 818 226 844 b 354 749 324 844 354 818 l 354 224 b 275 128 354 154 324 128 b 196 224 226 128 196 154 z m 43 233 b 275 -11 43 78 125 -11 b 507 233 425 -11 507 78 l 507 739 b 275 983 507 894 425 983 b 43 739 125 983 43 894 z m 115 1138 l 115 1029 l 435 1029 l 435 1138 z "},"Ŏ":{"ha":550,"x_min":0,"x_max":0,"o":"m 196 749 b 275 844 196 818 226 844 b 354 749 324 844 354 818 l 354 224 b 275 128 354 154 324 128 b 196 224 226 128 196 154 z m 43 233 b 275 -11 43 78 125 -11 b 507 233 425 -11 507 78 l 507 739 b 275 983 507 894 425 983 b 43 739 125 983 43 894 z m 340 1178 b 274 1113 336 1125 314 1113 b 210 1178 235 1113 214 1125 l 119 1178 b 274 1018 121 1081 169 1018 b 431 1178 378 1018 431 1081 l 340 1178 z "},"ŏ":{"ha":550,"x_min":0,"x_max":0,"o":"m 196 749 b 275 844 196 818 226 844 b 354 749 324 844 354 818 l 354 224 b 275 128 354 154 324 128 b 196 224 226 128 196 154 z m 43 233 b 275 -11 43 78 125 -11 b 507 233 425 -11 507 78 l 507 739 b 275 983 507 894 425 983 b 43 739 125 983 43 894 z m 340 1178 b 274 1113 336 1125 314 1113 b 210 1178 235 1113 214 1125 l 119 1178 b 274 1018 121 1081 169 1018 b 431 1178 378 1018 431 1081 l 340 1178 z "},"Ő":{"ha":550,"x_min":0,"x_max":0,"o":"m 196 749 b 275 844 196 818 226 844 b 354 749 324 844 354 818 l 354 224 b 275 128 354 154 324 128 b 196 224 226 128 196 154 z m 43 233 b 275 -11 43 78 125 -11 b 507 233 425 -11 507 78 l 507 739 b 275 983 507 894 425 983 b 43 739 125 983 43 894 z m 183 1178 l 114 1024 l 207 1024 l 322 1178 z m 364 1178 l 296 1024 l 388 1024 l 504 1178 z "},"ő":{"ha":550,"x_min":0,"x_max":0,"o":"m 196 749 b 275 844 196 818 226 844 b 354 749 324 844 354 818 l 354 224 b 275 128 354 154 324 128 b 196 224 226 128 196 154 z m 43 233 b 275 -11 43 78 125 -11 b 507 233 425 -11 507 78 l 507 739 b 275 983 507 894 425 983 b 43 739 125 983 43 894 z m 183 1178 l 114 1024 l 207 1024 l 322 1178 z m 364 1178 l 296 1024 l 388 1024 l 504 1178 z "},"Œ":{"ha":814,"x_min":0,"x_max":0,"o":"m 511 833 l 775 833 l 775 972 l 269 972 b 42 732 117 972 42 888 l 42 240 b 269 0 42 85 117 0 l 775 0 l 775 139 l 511 139 l 511 424 l 721 424 l 721 563 l 511 563 z m 358 139 l 272 139 b 194 233 224 139 194 164 l 194 739 b 272 833 194 808 224 833 l 358 833 z "},"œ":{"ha":814,"x_min":0,"x_max":0,"o":"m 511 833 l 775 833 l 775 972 l 269 972 b 42 732 117 972 42 888 l 42 240 b 269 0 42 85 117 0 l 775 0 l 775 139 l 511 139 l 511 424 l 721 424 l 721 563 l 511 563 z m 358 139 l 272 139 b 194 233 224 139 194 164 l 194 739 b 272 833 194 808 224 833 l 358 833 z "},"Ŕ":{"ha":558,"x_min":0,"x_max":0,"o":"m 531 0 b 514 118 515 36 514 71 l 514 268 b 413 474 514 369 489 442 l 413 476 b 513 672 481 508 513 572 l 513 749 b 286 972 513 899 444 972 l 56 972 l 56 0 l 208 0 l 208 396 l 261 396 b 361 272 331 396 361 363 l 361 119 b 375 0 361 40 367 25 z m 282 833 b 360 733 336 833 360 803 l 360 638 b 268 535 360 560 325 535 l 208 535 l 208 833 z m 285 1178 l 190 1024 l 293 1024 l 435 1178 z "},"ŕ":{"ha":558,"x_min":0,"x_max":0,"o":"m 531 0 b 514 118 515 36 514 71 l 514 268 b 413 474 514 369 489 442 l 413 476 b 513 672 481 508 513 572 l 513 749 b 286 972 513 899 444 972 l 56 972 l 56 0 l 208 0 l 208 396 l 261 396 b 361 272 331 396 361 363 l 361 119 b 375 0 361 40 367 25 z m 282 833 b 360 733 336 833 360 803 l 360 638 b 268 535 360 560 325 535 l 208 535 l 208 833 z m 285 1178 l 190 1024 l 293 1024 l 435 1178 z "},"Ŗ":{"ha":558,"x_min":0,"x_max":0,"o":"m 531 0 b 514 118 515 36 514 71 l 514 268 b 413 474 514 369 489 442 l 413 476 b 513 672 481 508 513 572 l 513 749 b 286 972 513 899 444 972 l 56 972 l 56 0 l 208 0 l 208 396 l 261 396 b 361 272 331 396 361 363 l 361 119 b 375 0 361 40 367 25 z m 282 833 b 360 733 336 833 360 803 l 360 638 b 268 535 360 560 325 535 l 208 535 l 208 833 z m 268 -174 l 232 -249 l 286 -249 l 346 -160 l 346 -46 l 218 -46 l 218 -174 z "},"ŗ":{"ha":558,"x_min":0,"x_max":0,"o":"m 531 0 b 514 118 515 36 514 71 l 514 268 b 413 474 514 369 489 442 l 413 476 b 513 672 481 508 513 572 l 513 749 b 286 972 513 899 444 972 l 56 972 l 56 0 l 208 0 l 208 396 l 261 396 b 361 272 331 396 361 363 l 361 119 b 375 0 361 40 367 25 z m 282 833 b 360 733 336 833 360 803 l 360 638 b 268 535 360 560 325 535 l 208 535 l 208 833 z m 268 -174 l 232 -249 l 286 -249 l 346 -160 l 346 -46 l 218 -46 l 218 -174 z "},"Ř":{"ha":558,"x_min":0,"x_max":0,"o":"m 531 0 b 514 118 515 36 514 71 l 514 268 b 413 474 514 369 489 442 l 413 476 b 513 672 481 508 513 572 l 513 749 b 286 972 513 899 444 972 l 56 972 l 56 0 l 208 0 l 208 396 l 261 396 b 361 272 331 396 361 363 l 361 119 b 375 0 361 40 367 25 z m 282 833 b 360 733 336 833 360 803 l 360 638 b 268 535 360 560 325 535 l 208 535 l 208 833 z m 78 1178 l 201 1024 l 339 1024 l 463 1178 l 332 1178 l 269 1100 l 208 1178 z "},"ř":{"ha":558,"x_min":0,"x_max":0,"o":"m 531 0 b 514 118 515 36 514 71 l 514 268 b 413 474 514 369 489 442 l 413 476 b 513 672 481 508 513 572 l 513 749 b 286 972 513 899 444 972 l 56 972 l 56 0 l 208 0 l 208 396 l 261 396 b 361 272 331 396 361 363 l 361 119 b 375 0 361 40 367 25 z m 282 833 b 360 733 336 833 360 803 l 360 638 b 268 535 360 560 325 535 l 208 535 l 208 833 z m 78 1178 l 201 1024 l 339 1024 l 463 1178 l 332 1178 l 269 1100 l 208 1178 z "},"Ś":{"ha":519,"x_min":0,"x_max":0,"o":"m 36 739 b 204 435 36 628 76 547 b 335 224 304 347 335 294 b 256 129 335 154 304 129 b 176 224 207 129 176 154 l 176 293 l 32 293 l 32 233 b 260 -11 32 78 110 -11 b 488 233 410 -11 488 78 b 319 538 488 344 447 425 b 189 749 219 625 189 678 b 265 844 189 818 217 844 b 342 749 314 844 342 818 l 342 708 l 486 708 l 486 739 b 261 983 486 894 410 983 b 36 739 113 983 36 894 z m 274 1178 l 179 1024 l 282 1024 l 424 1178 z "},"ś":{"ha":519,"x_min":0,"x_max":0,"o":"m 36 739 b 204 435 36 628 76 547 b 335 224 304 347 335 294 b 256 129 335 154 304 129 b 176 224 207 129 176 154 l 176 293 l 32 293 l 32 233 b 260 -11 32 78 110 -11 b 488 233 410 -11 488 78 b 319 538 488 344 447 425 b 189 749 219 625 189 678 b 265 844 189 818 217 844 b 342 749 314 844 342 818 l 342 708 l 486 708 l 486 739 b 261 983 486 894 410 983 b 36 739 113 983 36 894 z m 274 1178 l 179 1024 l 282 1024 l 424 1178 z "},"Ŝ":{"ha":519,"x_min":0,"x_max":0,"o":"m 36 739 b 204 435 36 628 76 547 b 335 224 304 347 335 294 b 256 129 335 154 304 129 b 176 224 207 129 176 154 l 176 293 l 32 293 l 32 233 b 260 -11 32 78 110 -11 b 488 233 410 -11 488 78 b 319 538 488 344 447 425 b 189 749 219 625 189 678 b 265 844 189 818 217 844 b 342 749 314 844 342 818 l 342 708 l 486 708 l 486 739 b 261 983 486 894 410 983 b 36 739 113 983 36 894 z m 197 1024 l 258 1100 l 321 1024 l 451 1024 l 328 1178 l 190 1178 l 67 1024 z "},"ŝ":{"ha":519,"x_min":0,"x_max":0,"o":"m 36 739 b 204 435 36 628 76 547 b 335 224 304 347 335 294 b 256 129 335 154 304 129 b 176 224 207 129 176 154 l 176 293 l 32 293 l 32 233 b 260 -11 32 78 110 -11 b 488 233 410 -11 488 78 b 319 538 488 344 447 425 b 189 749 219 625 189 678 b 265 844 189 818 217 844 b 342 749 314 844 342 818 l 342 708 l 486 708 l 486 739 b 261 983 486 894 410 983 b 36 739 113 983 36 894 z m 197 1024 l 258 1100 l 321 1024 l 451 1024 l 328 1178 l 190 1178 l 67 1024 z "},"Ş":{"ha":519,"x_min":0,"x_max":0,"o":"m 32 233 b 218 -8 32 93 94 7 l 218 -79 l 232 -79 b 282 -115 265 -79 282 -89 b 247 -149 282 -139 271 -149 b 217 -121 232 -149 217 -142 l 217 -110 l 114 -110 l 114 -124 b 247 -204 114 -187 171 -204 b 388 -119 329 -204 388 -194 b 285 -54 388 -71 353 -54 l 285 -10 b 488 233 418 0 488 86 b 319 538 488 344 447 425 b 189 749 219 625 189 678 b 265 844 189 818 217 844 b 342 749 314 844 342 818 l 342 708 l 486 708 l 486 739 b 261 983 486 894 410 983 b 36 739 113 983 36 894 b 204 435 36 628 76 547 b 335 224 304 347 335 294 b 256 129 335 154 304 129 b 176 224 207 129 176 154 l 176 293 l 32 293 z "},"ş":{"ha":519,"x_min":0,"x_max":0,"o":"m 32 233 b 218 -8 32 93 94 7 l 218 -79 l 232 -79 b 282 -115 265 -79 282 -89 b 247 -149 282 -139 271 -149 b 217 -121 232 -149 217 -142 l 217 -110 l 114 -110 l 114 -124 b 247 -204 114 -187 171 -204 b 388 -119 329 -204 388 -194 b 285 -54 388 -71 353 -54 l 285 -10 b 488 233 418 0 488 86 b 319 538 488 344 447 425 b 189 749 219 625 189 678 b 265 844 189 818 217 844 b 342 749 314 844 342 818 l 342 708 l 486 708 l 486 739 b 261 983 486 894 410 983 b 36 739 113 983 36 894 b 204 435 36 628 76 547 b 335 224 304 347 335 294 b 256 129 335 154 304 129 b 176 224 207 129 176 154 l 176 293 l 32 293 z "},"Š":{"ha":519,"x_min":0,"x_max":0,"o":"m 36 739 b 204 435 36 628 76 547 b 335 224 304 347 335 294 b 256 129 335 154 304 129 b 176 224 207 129 176 154 l 176 293 l 32 293 l 32 233 b 260 -11 32 78 110 -11 b 488 233 410 -11 488 78 b 319 538 488 344 447 425 b 189 749 219 625 189 678 b 265 844 189 818 217 844 b 342 749 314 844 342 818 l 342 708 l 486 708 l 486 739 b 261 983 486 894 410 983 b 36 739 113 983 36 894 z m 68 1178 l 192 1024 l 329 1024 l 453 1178 l 322 1178 l 260 1100 l 199 1178 z "},"š":{"ha":519,"x_min":0,"x_max":0,"o":"m 36 739 b 204 435 36 628 76 547 b 335 224 304 347 335 294 b 256 129 335 154 304 129 b 176 224 207 129 176 154 l 176 293 l 32 293 l 32 233 b 260 -11 32 78 110 -11 b 488 233 410 -11 488 78 b 319 538 488 344 447 425 b 189 749 219 625 189 678 b 265 844 189 818 217 844 b 342 749 314 844 342 818 l 342 708 l 486 708 l 486 739 b 261 983 486 894 410 983 b 36 739 113 983 36 894 z m 67 1178 l 190 1024 l 328 1024 l 451 1178 l 321 1178 l 258 1100 l 197 1178 z "},"Ţ":{"ha":494,"x_min":0,"x_max":0,"o":"m 122 -151 b 242 -247 122 -215 179 -247 b 368 -133 310 -247 368 -217 b 281 -54 368 -85 335 -54 l 281 0 l 324 0 l 324 833 l 483 833 l 483 972 l 11 972 l 11 833 l 171 833 l 171 0 l 211 0 l 211 -101 l 226 -101 b 276 -140 260 -101 276 -114 b 240 -176 276 -164 264 -176 b 211 -151 226 -176 211 -171 l 211 -137 l 122 -137 z "},"ţ":{"ha":494,"x_min":0,"x_max":0,"o":"m 122 -151 b 242 -247 122 -215 179 -247 b 368 -133 310 -247 368 -217 b 281 -54 368 -85 335 -54 l 281 0 l 324 0 l 324 833 l 483 833 l 483 972 l 11 972 l 11 833 l 171 833 l 171 0 l 211 0 l 211 -101 l 226 -101 b 276 -140 260 -101 276 -114 b 240 -176 276 -164 264 -176 b 211 -151 226 -176 211 -171 l 211 -137 l 122 -137 z "},"Ť":{"ha":494,"x_min":0,"x_max":0,"o":"m 11 833 l 171 833 l 171 0 l 324 0 l 324 833 l 483 833 l 483 972 l 11 972 z m 54 1178 l 178 1024 l 315 1024 l 439 1178 l 308 1178 l 246 1100 l 185 1178 z "},"ť":{"ha":494,"x_min":0,"x_max":0,"o":"m 11 833 l 171 833 l 171 0 l 324 0 l 324 833 l 483 833 l 483 972 l 11 972 z m 54 1178 l 178 1024 l 315 1024 l 439 1178 l 308 1178 l 246 1100 l 185 1178 z "},"Ŧ":{"ha":494,"x_min":0,"x_max":0,"o":"m 79 676 l 79 563 l 171 563 l 171 0 l 324 0 l 324 563 l 415 563 l 415 676 l 324 676 l 324 833 l 483 833 l 483 972 l 11 972 l 11 833 l 171 833 l 171 676 z "},"ŧ":{"ha":494,"x_min":0,"x_max":0,"o":"m 79 676 l 79 563 l 171 563 l 171 0 l 324 0 l 324 563 l 415 563 l 415 676 l 324 676 l 324 833 l 483 833 l 483 972 l 11 972 l 11 833 l 171 833 l 171 676 z "},"Ũ":{"ha":553,"x_min":0,"x_max":0,"o":"m 49 972 l 49 232 b 276 -12 49 76 126 -12 b 504 232 426 -12 504 76 l 504 972 l 360 972 l 360 222 b 281 128 360 153 329 128 b 201 222 232 128 201 153 l 201 972 z m 333 1129 b 282 1144 318 1129 304 1133 b 208 1164 254 1158 233 1164 b 90 1069 153 1164 114 1132 l 164 1018 b 224 1058 178 1047 193 1058 b 275 1043 239 1058 253 1054 b 349 1024 307 1028 326 1024 b 467 1118 404 1024 443 1056 l 393 1169 b 333 1129 379 1140 364 1129 z "},"ũ":{"ha":553,"x_min":0,"x_max":0,"o":"m 49 972 l 49 232 b 276 -12 49 76 126 -12 b 504 232 426 -12 504 76 l 504 972 l 360 972 l 360 222 b 281 128 360 153 329 128 b 201 222 232 128 201 153 l 201 972 z m 333 1129 b 282 1144 318 1129 304 1133 b 208 1164 254 1158 233 1164 b 90 1069 153 1164 114 1132 l 164 1018 b 224 1058 178 1047 193 1058 b 275 1043 239 1058 253 1054 b 349 1024 307 1028 326 1024 b 467 1118 404 1024 443 1056 l 393 1169 b 333 1129 379 1140 364 1129 z "},"Ū":{"ha":553,"x_min":0,"x_max":0,"o":"m 49 972 l 49 232 b 276 -12 49 76 126 -12 b 504 232 426 -12 504 76 l 504 972 l 360 972 l 360 222 b 281 128 360 153 329 128 b 201 222 232 128 201 153 l 201 972 z m 118 1138 l 118 1029 l 438 1029 l 438 1138 z "},"ū":{"ha":553,"x_min":0,"x_max":0,"o":"m 49 972 l 49 232 b 276 -12 49 76 126 -12 b 504 232 426 -12 504 76 l 504 972 l 360 972 l 360 222 b 281 128 360 153 329 128 b 201 222 232 128 201 153 l 201 972 z m 118 1138 l 118 1029 l 438 1029 l 438 1138 z "},"Ŭ":{"ha":553,"x_min":0,"x_max":0,"o":"m 49 972 l 49 232 b 276 -12 49 76 126 -12 b 504 232 426 -12 504 76 l 504 972 l 360 972 l 360 222 b 281 128 360 153 329 128 b 201 222 232 128 201 153 l 201 972 z m 343 1178 b 276 1113 339 1125 317 1113 b 213 1178 238 1113 217 1125 l 122 1178 b 276 1018 124 1081 172 1018 b 433 1178 381 1018 433 1081 l 343 1178 z "},"ŭ":{"ha":553,"x_min":0,"x_max":0,"o":"m 49 972 l 49 232 b 276 -12 49 76 126 -12 b 504 232 426 -12 504 76 l 504 972 l 360 972 l 360 222 b 281 128 360 153 329 128 b 201 222 232 128 201 153 l 201 972 z m 343 1178 b 276 1113 339 1125 317 1113 b 213 1178 238 1113 217 1125 l 122 1178 b 276 1018 124 1081 172 1018 b 433 1178 381 1018 433 1081 l 343 1178 z "},"Ů":{"ha":553,"x_min":0,"x_max":0,"o":"m 49 972 l 49 232 b 276 -12 49 76 126 -12 b 504 232 426 -12 504 76 l 504 972 l 360 972 l 360 222 b 281 128 360 153 329 128 b 201 222 232 128 201 153 l 201 972 z m 167 1131 b 278 1019 167 1068 215 1019 b 389 1131 340 1019 389 1068 b 278 1242 389 1193 340 1242 b 167 1131 215 1242 167 1193 z m 236 1131 b 278 1172 236 1154 254 1172 b 319 1131 301 1172 319 1154 b 278 1089 319 1107 301 1089 b 236 1131 254 1089 236 1107 z "},"ů":{"ha":553,"x_min":0,"x_max":0,"o":"m 49 972 l 49 232 b 276 -12 49 76 126 -12 b 504 232 426 -12 504 76 l 504 972 l 360 972 l 360 222 b 281 128 360 153 329 128 b 201 222 232 128 201 153 l 201 972 z m 167 1131 b 278 1019 167 1068 215 1019 b 389 1131 340 1019 389 1068 b 278 1242 389 1193 340 1242 b 167 1131 215 1242 167 1193 z m 236 1131 b 278 1172 236 1154 254 1172 b 319 1131 301 1172 319 1154 b 278 1089 319 1107 301 1089 b 236 1131 254 1089 236 1107 z "},"Ű":{"ha":553,"x_min":0,"x_max":0,"o":"m 49 972 l 49 232 b 276 -12 49 76 126 -12 b 504 232 426 -12 504 76 l 504 972 l 360 972 l 360 222 b 281 128 360 153 329 128 b 201 222 232 128 201 153 l 201 972 z m 186 1178 l 117 1024 l 210 1024 l 325 1178 z m 367 1178 l 299 1024 l 390 1024 l 507 1178 z "},"ű":{"ha":553,"x_min":0,"x_max":0,"o":"m 49 972 l 49 232 b 276 -12 49 76 126 -12 b 504 232 426 -12 504 76 l 504 972 l 360 972 l 360 222 b 281 128 360 153 329 128 b 201 222 232 128 201 153 l 201 972 z m 186 1178 l 117 1024 l 210 1024 l 325 1178 z m 367 1178 l 299 1024 l 390 1024 l 507 1178 z "},"Ų":{"ha":553,"x_min":0,"x_max":0,"o":"m 49 972 l 49 232 b 276 -12 49 76 126 -12 b 331 -7 296 -12 314 -11 l 331 -10 b 253 -118 278 -40 253 -76 b 374 -204 253 -175 300 -204 b 468 -189 413 -204 436 -201 l 468 -111 b 418 -119 453 -115 446 -119 b 369 -81 393 -119 369 -107 b 417 11 369 -60 378 -19 b 504 232 492 69 504 150 l 504 972 l 360 972 l 360 222 b 281 128 360 153 329 128 b 201 222 232 128 201 153 l 201 972 z "},"ų":{"ha":553,"x_min":0,"x_max":0,"o":"m 49 972 l 49 232 b 276 -12 49 76 126 -12 b 331 -7 296 -12 314 -11 l 331 -10 b 253 -118 278 -40 253 -76 b 374 -204 253 -175 300 -204 b 468 -189 413 -204 436 -201 l 468 -111 b 418 -119 453 -115 446 -119 b 369 -81 393 -119 369 -107 b 417 11 369 -60 378 -19 b 504 232 492 69 504 150 l 504 972 l 360 972 l 360 222 b 281 128 360 153 329 128 b 201 222 232 128 201 153 l 201 972 z "},"Ŵ":{"ha":782,"x_min":0,"x_max":0,"o":"m 450 0 l 653 0 l 761 972 l 628 972 l 550 200 l 547 200 l 472 972 l 325 972 l 253 206 l 250 206 l 169 972 l 21 972 l 129 0 l 339 0 l 393 518 l 396 518 z m 329 1024 l 390 1100 l 453 1024 l 583 1024 l 460 1178 l 322 1178 l 199 1024 z "},"ŵ":{"ha":782,"x_min":0,"x_max":0,"o":"m 450 0 l 653 0 l 761 972 l 628 972 l 550 200 l 547 200 l 472 972 l 325 972 l 253 206 l 250 206 l 169 972 l 21 972 l 129 0 l 339 0 l 393 518 l 396 518 z m 329 1024 l 390 1100 l 453 1024 l 583 1024 l 460 1178 l 322 1178 l 199 1024 z "},"Ŷ":{"ha":550,"x_min":0,"x_max":0,"o":"m 199 0 l 351 0 l 351 322 l 544 972 l 399 972 l 283 529 l 281 529 l 165 972 l 6 972 l 199 322 z m 219 1024 l 281 1100 l 343 1024 l 474 1024 l 350 1178 l 213 1178 l 89 1024 z "},"ŷ":{"ha":550,"x_min":0,"x_max":0,"o":"m 199 0 l 351 0 l 351 322 l 544 972 l 399 972 l 283 529 l 281 529 l 165 972 l 6 972 l 199 322 z m 219 1024 l 281 1100 l 343 1024 l 474 1024 l 350 1178 l 213 1178 l 89 1024 z "},"Ÿ":{"ha":550,"x_min":0,"x_max":0,"o":"m 199 0 l 351 0 l 351 322 l 544 972 l 399 972 l 283 529 l 281 529 l 165 972 l 6 972 l 199 322 z m 108 1157 l 108 1024 l 242 1024 l 242 1157 z m 319 1157 l 319 1024 l 453 1024 l 453 1157 z "},"Ź":{"ha":514,"x_min":0,"x_max":0,"o":"m 46 972 l 46 833 l 322 833 l 32 136 l 32 0 l 479 0 l 479 139 l 189 139 l 479 836 l 479 972 z m 272 1178 l 178 1024 l 281 1024 l 422 1178 z "},"ź":{"ha":514,"x_min":0,"x_max":0,"o":"m 46 972 l 46 833 l 322 833 l 32 136 l 32 0 l 479 0 l 479 139 l 189 139 l 479 836 l 479 972 z m 272 1178 l 178 1024 l 281 1024 l 422 1178 z "},"Ż":{"ha":514,"x_min":0,"x_max":0,"o":"m 46 972 l 46 833 l 322 833 l 32 136 l 32 0 l 479 0 l 479 139 l 189 139 l 479 836 l 479 972 z m 192 1157 l 192 1024 l 325 1024 l 325 1157 z "},"ż":{"ha":514,"x_min":0,"x_max":0,"o":"m 46 972 l 46 833 l 322 833 l 32 136 l 32 0 l 479 0 l 479 139 l 189 139 l 479 836 l 479 972 z m 192 1157 l 192 1024 l 325 1024 l 325 1157 z "},"Ž":{"ha":514,"x_min":0,"x_max":0,"o":"m 46 972 l 46 833 l 322 833 l 32 136 l 32 0 l 479 0 l 479 139 l 189 139 l 479 836 l 479 972 z m 67 1178 l 190 1024 l 328 1024 l 451 1178 l 321 1178 l 258 1100 l 197 1178 z "},"ž":{"ha":514,"x_min":0,"x_max":0,"o":"m 46 972 l 46 833 l 322 833 l 32 136 l 32 0 l 479 0 l 479 139 l 189 139 l 479 836 l 479 972 z m 67 1178 l 190 1024 l 328 1024 l 451 1178 l 321 1178 l 258 1100 l 197 1178 z "},"Ǽ":{"ha":806,"x_min":0,"x_max":0,"o":"m 350 0 l 767 0 l 767 139 l 503 139 l 503 424 l 713 424 l 713 563 l 503 563 l 503 833 l 767 833 l 767 972 l 265 972 l 6 0 l 151 0 l 196 176 l 350 176 z m 231 308 l 347 776 l 350 776 l 350 308 z m 417 1178 l 322 1024 l 425 1024 l 567 1178 z "},"ǽ":{"ha":806,"x_min":0,"x_max":0,"o":"m 350 0 l 767 0 l 767 139 l 503 139 l 503 424 l 713 424 l 713 563 l 503 563 l 503 833 l 767 833 l 767 972 l 265 972 l 6 0 l 151 0 l 196 176 l 350 176 z m 231 308 l 347 776 l 350 776 l 350 308 z m 417 1178 l 322 1024 l 425 1024 l 567 1178 z "},"Ǿ":{"ha":550,"x_min":0,"x_max":0,"o":"m 43 233 b 92 64 43 163 60 106 l 57 -33 l 108 -51 l 136 24 b 275 -11 172 0 219 -11 b 507 233 425 -11 507 78 l 507 739 b 457 907 507 810 490 867 l 493 1006 l 442 1024 l 414 947 b 275 983 378 971 331 983 b 43 739 125 983 43 894 z m 351 615 l 354 615 l 354 224 b 275 128 354 154 324 128 b 197 194 233 128 206 146 z m 196 749 b 275 844 196 818 226 844 b 351 778 315 844 344 825 l 199 357 l 196 357 z m 289 1178 l 194 1024 l 297 1024 l 439 1178 z "},"ǿ":{"ha":550,"x_min":0,"x_max":0,"o":"m 43 233 b 92 64 43 163 60 106 l 57 -33 l 108 -51 l 136 24 b 275 -11 172 0 219 -11 b 507 233 425 -11 507 78 l 507 739 b 457 907 507 810 490 867 l 493 1006 l 442 1024 l 414 947 b 275 983 378 971 331 983 b 43 739 125 983 43 894 z m 351 615 l 354 615 l 354 224 b 275 128 354 154 324 128 b 197 194 233 128 206 146 z m 196 749 b 275 844 196 818 226 844 b 351 778 315 844 344 825 l 199 357 l 196 357 z m 289 1178 l 194 1024 l 297 1024 l 439 1178 z "},"Ș":{"ha":519,"x_min":0,"x_max":0,"o":"m 242 -174 l 206 -249 l 260 -249 l 319 -160 l 319 -46 l 192 -46 l 192 -174 z m 36 739 b 204 435 36 628 76 547 b 335 224 304 347 335 294 b 256 129 335 154 304 129 b 176 224 207 129 176 154 l 176 293 l 32 293 l 32 233 b 260 -11 32 78 110 -11 b 488 233 410 -11 488 78 b 319 538 488 344 447 425 b 189 749 219 625 189 678 b 265 844 189 818 217 844 b 342 749 314 844 342 818 l 342 708 l 486 708 l 486 739 b 261 983 486 894 410 983 b 36 739 113 983 36 894 z "},"ș":{"ha":519,"x_min":0,"x_max":0,"o":"m 242 -174 l 206 -249 l 260 -249 l 319 -160 l 319 -46 l 192 -46 l 192 -174 z m 36 739 b 204 435 36 628 76 547 b 335 224 304 347 335 294 b 256 129 335 154 304 129 b 176 224 207 129 176 154 l 176 293 l 32 293 l 32 233 b 260 -11 32 78 110 -11 b 488 233 410 -11 488 78 b 319 538 488 344 447 425 b 189 749 219 625 189 678 b 265 844 189 818 217 844 b 342 749 314 844 342 818 l 342 708 l 486 708 l 486 739 b 261 983 486 894 410 983 b 36 739 113 983 36 894 z "},"Ț":{"ha":494,"x_min":0,"x_max":0,"o":"m 11 833 l 171 833 l 171 0 l 324 0 l 324 833 l 483 833 l 483 972 l 11 972 z m 233 -174 l 197 -249 l 251 -249 l 311 -160 l 311 -46 l 183 -46 l 183 -174 z "},"ț":{"ha":494,"x_min":0,"x_max":0,"o":"m 11 833 l 171 833 l 171 0 l 324 0 l 324 833 l 483 833 l 483 972 l 11 972 z m 233 -174 l 197 -249 l 251 -249 l 311 -160 l 311 -46 l 183 -46 l 183 -174 z "},"ȷ":{"ha":356,"x_min":0,"x_max":0,"o":"m 14 0 b 88 -3 39 -3 60 -3 b 307 242 203 -3 307 47 l 307 972 l 154 972 l 154 231 b 67 138 154 156 115 138 b 14 139 50 138 31 138 z "},"ʼ":{"ha":258,"x_min":0,"x_max":0,"o":"m 114 825 l 74 686 l 136 686 l 203 840 l 203 972 l 56 972 l 56 825 z "},"ˆ":{"ha":347,"x_min":0,"x_max":0,"o":"m 113 1024 l 174 1100 l 236 1024 l 367 1024 l 243 1178 l 106 1178 l -18 1024 z "},"ˇ":{"ha":347,"x_min":0,"x_max":0,"o":"m -18 1178 l 106 1024 l 243 1024 l 367 1178 l 236 1178 l 174 1100 l 113 1178 z "},"˘":{"ha":347,"x_min":0,"x_max":0,"o":"m 239 1178 b 172 1113 235 1125 213 1113 b 108 1178 133 1113 113 1125 l 18 1178 b 172 1018 19 1081 68 1018 b 329 1178 276 1018 329 1081 l 239 1178 z "},"˙":{"ha":347,"x_min":0,"x_max":0,"o":"m 107 1157 l 107 1024 l 240 1024 l 240 1157 z "},"˚":{"ha":347,"x_min":0,"x_max":0,"o":"m 63 1131 b 174 1019 63 1068 111 1019 b 285 1131 236 1019 285 1068 b 174 1242 285 1193 236 1242 b 63 1131 111 1242 63 1193 z m 132 1131 b 174 1172 132 1154 150 1172 b 215 1131 197 1172 215 1154 b 174 1089 215 1107 197 1089 b 132 1131 150 1089 132 1107 z "},"˛":{"ha":347,"x_min":0,"x_max":0,"o":"m 171 6 b 65 -118 100 -28 65 -71 b 186 -204 65 -175 113 -204 b 281 -189 225 -204 249 -201 l 281 -111 b 231 -119 265 -115 258 -119 b 182 -81 206 -119 182 -107 b 231 6 182 -60 190 -25 l 171 6 z "},"˜":{"ha":347,"x_min":0,"x_max":0,"o":"m 229 1129 b 178 1144 214 1129 200 1133 b 104 1164 150 1158 129 1164 b -14 1069 49 1164 10 1132 l 60 1018 b 119 1058 74 1047 89 1058 b 171 1043 135 1058 149 1054 b 244 1024 203 1028 222 1024 b 363 1118 300 1024 339 1056 l 289 1169 b 229 1129 275 1140 260 1129 z "},"˝":{"ha":347,"x_min":0,"x_max":0,"o":"m 35 1178 l -35 1024 l 58 1024 l 174 1178 z m 215 1178 l 147 1024 l 239 1024 l 356 1178 z "},"Ḃ":{"ha":564,"x_min":0,"x_max":0,"o":"m 286 972 l 56 972 l 56 0 l 296 0 b 528 231 449 0 528 81 l 528 310 b 414 517 528 413 496 485 l 414 519 b 513 714 482 551 513 614 l 513 749 b 286 972 513 899 444 972 z m 276 438 b 375 319 346 438 375 410 l 375 235 b 296 139 375 163 347 139 l 208 139 l 208 438 z m 282 833 b 360 733 336 833 360 803 l 360 679 b 268 576 360 601 325 576 l 208 576 l 208 833 z m 192 1157 l 192 1024 l 325 1024 l 325 1157 z "},"ḃ":{"ha":564,"x_min":0,"x_max":0,"o":"m 286 972 l 56 972 l 56 0 l 296 0 b 528 231 449 0 528 81 l 528 310 b 414 517 528 413 496 485 l 414 519 b 513 714 482 551 513 614 l 513 749 b 286 972 513 899 444 972 z m 276 438 b 375 319 346 438 375 410 l 375 235 b 296 139 375 163 347 139 l 208 139 l 208 438 z m 282 833 b 360 733 336 833 360 803 l 360 679 b 268 576 360 601 325 576 l 208 576 l 208 833 z m 192 1157 l 192 1024 l 325 1024 l 325 1157 z "},"Ḋ":{"ha":567,"x_min":0,"x_max":0,"o":"m 56 0 l 297 0 b 525 240 450 0 525 85 l 525 732 b 297 972 525 888 450 972 l 56 972 z m 294 833 b 372 739 343 833 372 808 l 372 233 b 294 139 372 164 343 139 l 208 139 l 208 833 z m 203 1157 l 203 1024 l 336 1024 l 336 1157 z "},"ḋ":{"ha":567,"x_min":0,"x_max":0,"o":"m 56 0 l 297 0 b 525 240 450 0 525 85 l 525 732 b 297 972 525 888 450 972 l 56 972 z m 294 833 b 372 739 343 833 372 808 l 372 233 b 294 139 372 164 343 139 l 208 139 l 208 833 z m 203 1157 l 203 1024 l 336 1024 l 336 1157 z "},"Ḟ":{"ha":478,"x_min":0,"x_max":0,"o":"m 208 833 l 460 833 l 460 972 l 56 972 l 56 0 l 208 0 l 208 401 l 406 401 l 406 540 l 208 540 z m 186 1157 l 186 1024 l 319 1024 l 319 1157 z "},"ḟ":{"ha":478,"x_min":0,"x_max":0,"o":"m 208 833 l 460 833 l 460 972 l 56 972 l 56 0 l 208 0 l 208 401 l 406 401 l 406 540 l 208 540 z m 186 1157 l 186 1024 l 319 1024 l 319 1157 z "},"Ṁ":{"ha":751,"x_min":0,"x_max":0,"o":"m 267 972 l 54 972 l 54 0 l 188 0 l 188 688 l 190 688 l 301 0 l 446 0 l 549 697 l 551 697 l 551 0 l 696 0 l 696 972 l 483 972 l 381 282 l 378 282 z m 308 1157 l 308 1024 l 442 1024 l 442 1157 z "},"ṁ":{"ha":751,"x_min":0,"x_max":0,"o":"m 267 972 l 54 972 l 54 0 l 188 0 l 188 688 l 190 688 l 301 0 l 446 0 l 549 697 l 551 697 l 551 0 l 696 0 l 696 972 l 483 972 l 381 282 l 378 282 z m 308 1157 l 308 1024 l 442 1024 l 442 1157 z "},"Ṗ":{"ha":524,"x_min":0,"x_max":0,"o":"m 281 972 l 56 972 l 56 0 l 208 0 l 208 365 l 281 365 b 508 606 433 365 508 450 l 508 732 b 281 972 508 888 433 972 z m 281 833 b 356 742 329 833 356 811 l 356 596 b 281 504 356 526 329 504 l 208 504 l 208 833 z m 197 1157 l 197 1024 l 331 1024 l 331 1157 z "},"ṗ":{"ha":524,"x_min":0,"x_max":0,"o":"m 281 972 l 56 972 l 56 0 l 208 0 l 208 365 l 281 365 b 508 606 433 365 508 450 l 508 732 b 281 972 508 888 433 972 z m 281 833 b 356 742 329 833 356 811 l 356 596 b 281 504 356 526 329 504 l 208 504 l 208 833 z m 197 1157 l 197 1024 l 331 1024 l 331 1157 z "},"Ṡ":{"ha":519,"x_min":0,"x_max":0,"o":"m 36 739 b 204 435 36 628 76 547 b 335 224 304 347 335 294 b 256 129 335 154 304 129 b 176 224 207 129 176 154 l 176 293 l 32 293 l 32 233 b 260 -11 32 78 110 -11 b 488 233 410 -11 488 78 b 319 538 488 344 447 425 b 189 749 219 625 189 678 b 265 844 189 818 217 844 b 342 749 314 844 342 818 l 342 708 l 486 708 l 486 739 b 261 983 486 894 410 983 b 36 739 113 983 36 894 z m 193 1157 l 193 1024 l 326 1024 l 326 1157 z "},"ṡ":{"ha":519,"x_min":0,"x_max":0,"o":"m 36 739 b 204 435 36 628 76 547 b 335 224 304 347 335 294 b 256 129 335 154 304 129 b 176 224 207 129 176 154 l 176 293 l 32 293 l 32 233 b 260 -11 32 78 110 -11 b 488 233 410 -11 488 78 b 319 538 488 344 447 425 b 189 749 219 625 189 678 b 265 844 189 818 217 844 b 342 749 314 844 342 818 l 342 708 l 486 708 l 486 739 b 261 983 486 894 410 983 b 36 739 113 983 36 894 z m 193 1157 l 193 1024 l 326 1024 l 326 1157 z "},"Ṫ":{"ha":494,"x_min":0,"x_max":0,"o":"m 11 833 l 171 833 l 171 0 l 324 0 l 324 833 l 483 833 l 483 972 l 11 972 z m 181 1157 l 181 1024 l 314 1024 l 314 1157 z "},"ṫ":{"ha":494,"x_min":0,"x_max":0,"o":"m 11 833 l 171 833 l 171 0 l 324 0 l 324 833 l 483 833 l 483 972 l 11 972 z m 181 1157 l 181 1024 l 314 1024 l 314 1157 z "},"Ẁ":{"ha":782,"x_min":0,"x_max":0,"o":"m 450 0 l 653 0 l 761 972 l 628 972 l 550 200 l 547 200 l 472 972 l 325 972 l 253 206 l 250 206 l 169 972 l 21 972 l 129 0 l 339 0 l 393 518 l 396 518 z m 224 1178 l 365 1024 l 475 1024 l 381 1178 z "},"ẁ":{"ha":782,"x_min":0,"x_max":0,"o":"m 450 0 l 653 0 l 761 972 l 628 972 l 550 200 l 547 200 l 472 972 l 325 972 l 253 206 l 250 206 l 169 972 l 21 972 l 129 0 l 339 0 l 393 518 l 396 518 z m 224 1178 l 365 1024 l 475 1024 l 381 1178 z "},"Ẃ":{"ha":782,"x_min":0,"x_max":0,"o":"m 450 0 l 653 0 l 761 972 l 628 972 l 550 200 l 547 200 l 472 972 l 325 972 l 253 206 l 250 206 l 169 972 l 21 972 l 129 0 l 339 0 l 393 518 l 396 518 z m 404 1178 l 310 1024 l 413 1024 l 554 1178 z "},"ẃ":{"ha":782,"x_min":0,"x_max":0,"o":"m 450 0 l 653 0 l 761 972 l 628 972 l 550 200 l 547 200 l 472 972 l 325 972 l 253 206 l 250 206 l 169 972 l 21 972 l 129 0 l 339 0 l 393 518 l 396 518 z m 404 1178 l 310 1024 l 413 1024 l 554 1178 z "},"Ẅ":{"ha":782,"x_min":0,"x_max":0,"o":"m 450 0 l 653 0 l 761 972 l 628 972 l 550 200 l 547 200 l 472 972 l 325 972 l 253 206 l 250 206 l 169 972 l 21 972 l 129 0 l 339 0 l 393 518 l 396 518 z m 218 1157 l 218 1024 l 351 1024 l 351 1157 z m 429 1157 l 429 1024 l 563 1024 l 563 1157 z "},"ẅ":{"ha":782,"x_min":0,"x_max":0,"o":"m 450 0 l 653 0 l 761 972 l 628 972 l 550 200 l 547 200 l 472 972 l 325 972 l 253 206 l 250 206 l 169 972 l 21 972 l 129 0 l 339 0 l 393 518 l 396 518 z m 218 1157 l 218 1024 l 351 1024 l 351 1157 z m 429 1157 l 429 1024 l 563 1024 l 563 1157 z "},"Ỳ":{"ha":550,"x_min":0,"x_max":0,"o":"m 199 0 l 351 0 l 351 322 l 544 972 l 399 972 l 283 529 l 281 529 l 165 972 l 6 972 l 199 322 z m 114 1178 l 256 1024 l 365 1024 l 271 1178 z "},"ỳ":{"ha":550,"x_min":0,"x_max":0,"o":"m 199 0 l 351 0 l 351 322 l 544 972 l 399 972 l 283 529 l 281 529 l 165 972 l 6 972 l 199 322 z m 114 1178 l 256 1024 l 365 1024 l 271 1178 z "},"‒":{"ha":550,"x_min":0,"x_max":0,"o":"m 0 424 l 550 424 l 550 549 l 0 549 z "},"–":{"ha":694,"x_min":0,"x_max":0,"o":"m 0 424 l 694 424 l 694 549 l 0 549 z "},"—":{"ha":1389,"x_min":0,"x_max":0,"o":"m 0 424 l 1389 424 l 1389 549 l 0 549 z "},"‘":{"ha":258,"x_min":0,"x_max":0,"o":"m 144 833 l 185 972 l 122 972 l 56 818 l 56 686 l 203 686 l 203 833 z "},"’":{"ha":258,"x_min":0,"x_max":0,"o":"m 114 825 l 74 686 l 136 686 l 203 840 l 203 972 l 56 972 l 56 825 z "},"‚":{"ha":258,"x_min":0,"x_max":0,"o":"m 114 0 l 74 -139 l 136 -139 l 203 15 l 203 147 l 56 147 l 56 0 z "},"“":{"ha":461,"x_min":0,"x_max":0,"o":"m 144 833 l 185 972 l 122 972 l 56 818 l 56 686 l 203 686 l 203 833 z m 347 833 l 388 972 l 325 972 l 258 818 l 258 686 l 406 686 l 406 833 z "},"”":{"ha":461,"x_min":0,"x_max":0,"o":"m 114 825 l 74 686 l 136 686 l 203 840 l 203 972 l 56 972 l 56 825 z m 317 825 l 276 686 l 339 686 l 406 840 l 406 972 l 258 972 l 258 825 z "},"„":{"ha":461,"x_min":0,"x_max":0,"o":"m 114 0 l 74 -139 l 136 -139 l 203 15 l 203 147 l 56 147 l 56 0 z m 317 0 l 276 -139 l 339 -139 l 406 15 l 406 147 l 258 147 l 258 0 z "},"†":{"ha":550,"x_min":0,"x_max":0,"o":"m 35 611 l 213 611 l 213 -90 l 338 -90 l 338 611 l 515 611 l 515 729 l 338 729 l 338 972 l 213 972 l 213 729 l 35 729 z "},"‡":{"ha":550,"x_min":0,"x_max":0,"o":"m 35 611 l 213 611 l 213 271 l 35 271 l 35 153 l 213 153 l 213 -90 l 338 -90 l 338 153 l 515 153 l 515 271 l 338 271 l 338 611 l 515 611 l 515 729 l 338 729 l 338 972 l 213 972 l 213 729 l 35 729 z "},"•":{"ha":550,"x_min":0,"x_max":0,"o":"m 82 486 b 275 293 82 379 168 293 b 468 486 382 293 468 379 b 275 679 468 593 382 679 b 82 486 168 679 82 593 z "},"…":{"ha":664,"x_min":0,"x_max":0,"o":"m 56 147 l 56 0 l 203 0 l 203 147 z m 258 147 l 258 0 l 406 0 l 406 147 z m 461 147 l 461 0 l 608 0 l 608 147 z "},"‰":{"ha":1226,"x_min":0,"x_max":0,"o":"m 144 831 b 194 892 144 874 163 892 b 244 831 225 892 244 874 l 244 497 b 194 436 244 454 225 436 b 144 497 163 436 144 454 z m 47 504 b 194 349 47 404 99 349 b 342 504 290 349 342 404 l 342 824 b 194 979 342 924 290 979 b 47 824 99 979 47 924 z m 194 0 l 285 0 l 668 972 l 578 972 z m 626 475 b 676 536 626 518 644 536 b 726 475 707 536 726 518 l 726 142 b 676 81 726 99 707 81 b 626 142 644 81 626 99 z m 529 149 b 676 -7 529 49 581 -7 b 824 149 772 -7 824 49 l 824 468 b 676 624 824 568 772 624 b 529 468 581 624 529 568 z m 982 475 b 1032 536 982 518 1000 536 b 1082 475 1063 536 1082 518 l 1082 142 b 1032 81 1082 99 1063 81 b 982 142 1000 81 982 99 z m 885 149 b 1032 -7 885 49 936 -7 b 1179 149 1128 -7 1179 49 l 1179 468 b 1032 624 1179 568 1128 624 b 885 468 936 624 885 568 z "},"‹":{"ha":272,"x_min":0,"x_max":0,"o":"m 106 857 l 22 488 l 106 96 l 250 96 l 168 488 l 250 857 z "},"›":{"ha":272,"x_min":0,"x_max":0,"o":"m 22 857 l 104 488 l 22 96 l 167 96 l 250 488 l 167 857 z "},"⁄":{"ha":93,"x_min":0,"x_max":0,"o":"m -190 0 l -100 0 l 283 972 l 193 972 z "},"⁰":{"ha":389,"x_min":0,"x_max":0,"o":"m 144 963 b 194 1024 144 1006 163 1024 b 244 963 225 1024 244 1006 l 244 629 b 194 568 244 586 225 568 b 144 629 163 568 144 586 z m 47 636 b 194 481 47 536 99 481 b 342 636 290 481 342 536 l 342 956 b 194 1111 342 1056 290 1111 b 47 956 99 1111 47 1056 z "},"⁴":{"ha":389,"x_min":0,"x_max":0,"o":"m 33 599 l 219 599 l 219 488 l 315 488 l 315 599 l 361 599 l 361 688 l 315 688 l 315 1104 l 210 1104 l 33 688 z m 121 688 l 217 915 l 219 915 l 219 688 z "},"⁵":{"ha":389,"x_min":0,"x_max":0,"o":"m 51 685 l 51 633 b 196 478 51 535 100 478 b 340 633 292 478 340 535 l 340 771 b 233 913 340 861 304 913 b 150 867 194 913 167 896 l 147 867 l 154 1014 l 325 1014 l 325 1103 l 69 1103 l 51 744 l 143 744 l 143 763 b 193 824 143 807 163 824 b 243 763 224 824 243 807 l 243 628 b 193 568 243 583 224 568 b 143 628 163 568 143 583 l 143 685 z "},"⁶":{"ha":389,"x_min":0,"x_max":0,"o":"m 50 636 b 197 481 50 538 101 481 b 344 636 293 481 344 538 l 344 749 b 238 889 344 839 308 889 b 150 836 193 889 167 871 l 147 836 l 147 947 b 201 1024 147 1007 167 1024 b 251 963 232 1024 251 1007 l 251 940 l 343 940 l 343 956 b 199 1111 343 1054 293 1111 b 50 951 97 1111 50 1054 z m 197 801 b 247 740 228 801 247 785 l 247 629 b 197 569 247 585 228 569 b 147 629 167 569 147 585 l 147 740 b 197 801 147 785 167 801 z "},"⁷":{"ha":389,"x_min":0,"x_max":0,"o":"m 49 1104 l 49 1017 l 242 1017 l 100 488 l 197 488 l 340 1019 l 340 1104 z "},"⁸":{"ha":389,"x_min":0,"x_max":0,"o":"m 346 636 l 346 683 b 286 811 346 743 328 788 l 286 814 b 346 936 326 836 346 876 l 346 956 b 194 1111 346 1054 292 1111 b 43 956 97 1111 43 1054 l 43 936 b 103 814 43 876 63 836 l 103 811 b 43 683 61 788 43 743 l 43 636 b 194 481 43 538 97 481 b 346 636 292 481 346 538 z m 140 638 l 140 696 b 194 765 140 744 160 765 b 249 696 229 765 249 744 l 249 638 b 194 568 249 583 225 568 b 140 638 164 568 140 583 z m 140 953 b 194 1024 140 1008 164 1024 b 249 953 225 1024 249 1008 l 249 918 b 194 853 249 869 225 853 b 140 918 163 853 140 869 z "},"⁹":{"ha":389,"x_min":0,"x_max":0,"o":"m 339 956 b 192 1111 339 1054 288 1111 b 44 956 96 1111 44 1054 l 44 843 b 151 703 44 753 81 703 b 239 756 196 703 222 721 l 242 756 l 242 644 b 188 568 242 585 222 568 b 138 629 157 568 138 585 l 138 651 l 46 651 l 46 636 b 190 481 46 538 96 481 b 339 640 292 481 339 538 z m 192 790 b 142 851 161 790 142 807 l 142 963 b 192 1022 142 1007 161 1022 b 242 963 222 1022 242 1007 l 242 851 b 192 790 242 807 222 790 z "},"₀":{"ha":389,"x_min":0,"x_max":0,"o":"m 144 385 b 194 446 144 428 163 446 b 244 385 225 446 244 428 l 244 51 b 194 -10 244 8 225 -10 b 144 51 163 -10 144 8 z m 47 58 b 194 -97 47 -42 99 -97 b 342 58 290 -97 342 -42 l 342 378 b 194 533 342 478 290 533 b 47 378 99 533 47 478 z "},"₁":{"ha":278,"x_min":0,"x_max":0,"o":"m 35 381 l 110 381 l 110 -90 l 207 -90 l 207 526 l 143 526 b 35 449 126 485 110 449 z "},"₂":{"ha":389,"x_min":0,"x_max":0,"o":"m 250 378 b 154 182 250 310 226 257 b 58 -15 81 104 58 53 l 58 -90 l 339 -90 l 339 -3 l 156 -3 b 154 11 154 0 154 3 b 228 135 154 43 168 71 b 347 381 318 231 347 299 b 203 535 347 481 297 535 b 58 381 108 535 58 481 l 58 321 l 150 321 l 150 386 b 200 447 150 426 167 447 b 250 378 235 447 250 426 z "},"₃":{"ha":389,"x_min":0,"x_max":0,"o":"m 242 61 b 192 -10 242 6 222 -10 b 142 51 161 -10 142 8 l 142 108 l 50 108 l 50 58 b 194 -97 50 -42 99 -97 b 339 58 290 -97 339 -42 l 339 107 b 271 236 339 169 319 215 b 339 363 318 256 339 296 l 339 378 b 194 533 339 478 290 533 b 50 378 99 533 50 478 l 50 346 l 142 346 l 142 385 b 192 446 142 428 161 446 b 242 375 222 446 242 431 l 242 340 b 183 274 242 292 219 274 l 146 274 l 146 186 l 179 186 b 242 108 222 186 242 167 z "},"₄":{"ha":389,"x_min":0,"x_max":0,"o":"m 33 21 l 219 21 l 219 -90 l 315 -90 l 315 21 l 361 21 l 361 110 l 315 110 l 315 526 l 210 526 l 33 110 z m 121 110 l 217 338 l 219 338 l 219 110 z "},"₅":{"ha":389,"x_min":0,"x_max":0,"o":"m 51 107 l 51 56 b 196 -100 51 -43 100 -100 b 340 56 292 -100 340 -43 l 340 193 b 233 335 340 283 304 335 b 150 289 194 335 167 318 l 147 289 l 154 436 l 325 436 l 325 525 l 69 525 l 51 167 l 143 167 l 143 185 b 193 246 143 229 163 246 b 243 185 224 246 243 229 l 243 50 b 193 -10 243 6 224 -10 b 143 50 163 -10 143 6 l 143 107 z "},"₆":{"ha":389,"x_min":0,"x_max":0,"o":"m 50 58 b 197 -97 50 -40 101 -97 b 344 58 293 -97 344 -40 l 344 171 b 238 311 344 261 308 311 b 150 258 193 311 167 293 l 147 258 l 147 369 b 201 446 147 429 167 446 b 251 385 232 446 251 429 l 251 363 l 343 363 l 343 378 b 199 533 343 476 293 533 b 50 374 97 533 50 476 z m 197 224 b 247 163 228 224 247 207 l 247 51 b 197 -8 247 7 228 -8 b 147 51 167 -8 147 7 l 147 163 b 197 224 147 207 167 224 z "},"₇":{"ha":389,"x_min":0,"x_max":0,"o":"m 49 526 l 49 439 l 242 439 l 100 -90 l 197 -90 l 340 442 l 340 526 z "},"₈":{"ha":389,"x_min":0,"x_max":0,"o":"m 346 58 l 346 106 b 286 233 346 165 328 210 l 286 236 b 346 358 326 258 346 299 l 346 378 b 194 533 346 476 292 533 b 43 378 97 533 43 476 l 43 358 b 103 236 43 299 63 258 l 103 233 b 43 106 61 210 43 165 l 43 58 b 194 -97 43 -40 97 -97 b 346 58 292 -97 346 -40 z m 140 60 l 140 118 b 194 188 140 167 160 188 b 249 118 229 188 249 167 l 249 60 b 194 -10 249 6 225 -10 b 140 60 164 -10 140 6 z m 140 375 b 194 446 140 431 164 446 b 249 375 225 446 249 431 l 249 340 b 194 275 249 292 225 275 b 140 340 163 275 140 292 z "},"₉":{"ha":389,"x_min":0,"x_max":0,"o":"m 339 378 b 192 533 339 476 288 533 b 44 378 96 533 44 476 l 44 265 b 151 125 44 175 81 125 b 239 178 196 125 222 143 l 242 178 l 242 67 b 188 -10 242 7 222 -10 b 138 51 157 -10 138 7 l 138 74 l 46 74 l 46 58 b 190 -97 46 -40 96 -97 b 339 63 292 -97 339 -40 z m 192 213 b 142 274 161 213 142 229 l 142 385 b 192 444 142 429 161 444 b 242 385 222 444 242 429 l 242 274 b 192 213 242 229 222 213 z "},"€":{"ha":550,"x_min":0,"x_max":0,"o":"m 26 528 l 65 528 l 65 451 l 26 451 l 26 375 l 65 375 l 65 233 b 289 -11 65 78 139 -11 b 513 233 439 -11 513 78 l 513 311 l 368 311 l 368 224 b 293 129 368 154 342 129 b 218 224 244 129 218 154 l 218 375 l 432 375 l 432 451 l 218 451 l 218 528 l 432 528 l 432 604 l 218 604 l 218 749 b 293 844 218 818 244 844 b 368 749 342 844 368 818 l 368 668 l 513 668 l 513 739 b 289 983 513 894 439 983 b 65 739 139 983 65 894 l 65 604 l 26 604 z "},"₹":{"ha":550,"x_min":0,"x_max":0,"o":"m 36 763 l 36 644 l 281 644 b 164 553 281 575 240 553 l 36 553 l 36 435 l 358 0 l 522 0 l 199 435 b 432 644 317 435 421 510 l 514 644 l 514 763 l 432 763 b 397 854 426 797 415 828 l 514 854 l 514 972 l 36 972 l 36 854 l 164 854 b 281 763 240 854 281 832 z "},"℗":{"ha":1022,"x_min":0,"x_max":0,"o":"m 28 486 b 511 -11 28 197 236 -11 b 994 486 786 -11 994 197 b 511 983 994 775 786 983 b 28 486 236 983 28 775 z m 128 486 b 511 886 128 718 292 886 b 894 486 731 886 894 718 b 511 86 894 254 731 86 b 128 486 292 86 128 254 z m 382 176 l 488 176 l 488 382 l 543 382 b 700 538 651 382 700 433 l 700 615 b 543 771 700 719 651 771 l 382 771 z m 594 550 b 538 479 594 501 578 479 l 488 479 l 488 674 l 538 674 b 594 603 578 674 594 651 z "},"™":{"ha":814,"x_min":0,"x_max":0,"o":"m 507 972 l 372 972 l 372 478 l 457 478 l 457 826 l 460 826 l 531 478 l 622 478 l 685 829 l 688 829 l 688 478 l 779 478 l 779 972 l 644 972 l 581 625 l 578 625 z m 14 883 l 115 883 l 115 478 l 213 478 l 213 883 l 314 883 l 314 972 l 14 972 z "},"⅓":{"ha":871,"x_min":0,"x_max":0,"o":"m 90 826 l 165 826 l 165 356 l 263 356 l 263 972 l 199 972 b 90 894 182 931 165 894 z m 724 151 b 674 81 724 96 704 81 b 624 142 643 81 624 99 l 624 199 l 532 199 l 532 149 b 676 -7 532 49 581 -7 b 821 149 772 -7 821 49 l 821 197 b 753 326 821 260 801 306 b 821 453 800 346 821 386 l 821 468 b 676 624 821 568 772 624 b 532 468 581 624 532 568 l 532 436 l 624 436 l 624 475 b 674 536 624 518 643 536 b 724 465 704 536 724 521 l 724 431 b 665 364 724 382 701 364 l 628 364 l 628 276 l 661 276 b 724 199 704 276 724 257 z m 181 0 l 271 0 l 654 972 l 564 972 z "},"⅔":{"ha":871,"x_min":0,"x_max":0,"o":"m 250 822 b 154 626 250 754 226 701 b 58 429 81 549 58 497 l 58 354 l 339 354 l 339 442 l 156 442 b 154 456 154 444 154 447 b 228 579 154 488 168 515 b 347 825 318 675 347 743 b 203 979 347 925 297 979 b 58 825 108 979 58 925 l 58 765 l 150 765 l 150 831 b 200 892 150 871 167 892 b 250 822 235 892 250 871 z m 213 0 l 303 0 l 686 972 l 596 972 z m 724 151 b 674 81 724 96 704 81 b 624 142 643 81 624 99 l 624 199 l 532 199 l 532 149 b 676 -7 532 49 581 -7 b 821 149 772 -7 821 49 l 821 197 b 753 326 821 260 801 306 b 821 453 800 346 821 386 l 821 468 b 676 624 821 568 772 624 b 532 468 581 624 532 568 l 532 436 l 624 436 l 624 475 b 674 536 624 518 643 536 b 724 465 704 536 724 521 l 724 431 b 665 364 724 382 701 364 l 628 364 l 628 276 l 661 276 b 724 199 704 276 724 257 z "},"⅛":{"ha":871,"x_min":0,"x_max":0,"o":"m 90 826 l 165 826 l 165 356 l 263 356 l 263 972 l 199 972 b 90 894 182 931 165 894 z m 828 149 l 828 196 b 768 324 828 256 810 300 l 768 326 b 828 449 808 349 828 389 l 828 468 b 676 624 828 567 774 624 b 525 468 579 624 525 567 l 525 449 b 585 326 525 389 544 349 l 585 324 b 525 196 543 300 525 256 l 525 149 b 676 -7 525 50 579 -7 b 828 149 774 -7 828 50 z m 622 150 l 622 208 b 676 278 622 257 642 278 b 731 208 711 278 731 257 l 731 150 b 676 81 731 96 707 81 b 622 150 646 81 622 96 z m 622 465 b 676 536 622 521 646 536 b 731 465 707 536 731 521 l 731 431 b 676 365 731 382 707 365 b 622 431 644 365 622 382 z m 181 0 l 271 0 l 654 972 l 564 972 z "},"⅜":{"ha":871,"x_min":0,"x_max":0,"o":"m 242 507 b 192 436 242 451 222 436 b 142 497 161 436 142 454 l 142 554 l 50 554 l 50 504 b 194 349 50 404 99 349 b 339 504 290 349 339 404 l 339 553 b 271 681 339 615 319 660 l 271 683 b 339 808 318 703 339 742 l 339 824 b 194 979 339 924 290 979 b 50 824 99 979 50 924 l 50 792 l 142 792 l 142 831 b 192 892 142 874 161 892 b 242 821 222 892 242 876 l 242 786 b 183 719 242 738 219 719 l 146 719 l 146 632 l 179 632 b 242 554 222 632 242 613 z m 199 0 l 289 0 l 672 972 l 582 972 z m 828 149 l 828 196 b 768 324 828 256 810 300 l 768 326 b 828 449 808 349 828 389 l 828 468 b 676 624 828 567 774 624 b 525 468 579 624 525 567 l 525 449 b 585 326 525 389 544 349 l 585 324 b 525 196 543 300 525 256 l 525 149 b 676 -7 525 50 579 -7 b 828 149 774 -7 828 50 z m 622 150 l 622 208 b 676 278 622 257 642 278 b 731 208 711 278 731 257 l 731 150 b 676 81 731 96 707 81 b 622 150 646 81 622 96 z m 622 465 b 676 536 622 521 646 536 b 731 465 707 536 731 521 l 731 431 b 676 365 731 382 707 365 b 622 431 644 365 622 382 z "},"⅝":{"ha":871,"x_min":0,"x_max":0,"o":"m 51 553 l 51 501 b 196 346 51 403 100 346 b 340 501 292 346 340 403 l 340 639 b 233 781 340 729 304 781 b 150 735 194 781 167 764 l 147 735 l 154 882 l 325 882 l 325 971 l 69 971 l 51 613 l 143 613 l 143 631 b 193 692 143 675 163 692 b 243 631 224 692 243 675 l 243 496 b 193 436 243 451 224 436 b 143 496 163 436 143 451 l 143 553 z m 199 0 l 289 0 l 672 972 l 582 972 z m 828 149 l 828 196 b 768 324 828 256 810 300 l 768 326 b 828 449 808 349 828 389 l 828 468 b 676 624 828 567 774 624 b 525 468 579 624 525 567 l 525 449 b 585 326 525 389 544 349 l 585 324 b 525 196 543 300 525 256 l 525 149 b 676 -7 525 50 579 -7 b 828 149 774 -7 828 50 z m 622 150 l 622 208 b 676 278 622 257 642 278 b 731 208 711 278 731 257 l 731 150 b 676 81 731 96 707 81 b 622 150 646 81 622 96 z m 622 465 b 676 536 622 521 646 536 b 731 465 707 536 731 521 l 731 431 b 676 365 731 382 707 365 b 622 431 644 365 622 382 z "},"⅞":{"ha":871,"x_min":0,"x_max":0,"o":"m 49 972 l 49 885 l 242 885 l 100 356 l 197 356 l 340 888 l 340 972 z m 157 0 l 247 0 l 631 972 l 540 972 z m 828 149 l 828 196 b 768 324 828 256 810 300 l 768 326 b 828 449 808 349 828 389 l 828 468 b 676 624 828 567 774 624 b 525 468 579 624 525 567 l 525 449 b 585 326 525 389 544 349 l 585 324 b 525 196 543 300 525 256 l 525 149 b 676 -7 525 50 579 -7 b 828 149 774 -7 828 50 z m 622 150 l 622 208 b 676 278 622 257 642 278 b 731 208 711 278 731 257 l 731 150 b 676 81 731 96 707 81 b 622 150 646 81 622 96 z m 622 465 b 676 536 622 521 646 536 b 731 465 707 536 731 521 l 731 431 b 676 365 731 382 707 365 b 622 431 644 365 622 382 z "},"−":{"ha":550,"x_min":0,"x_max":0,"o":"m 35 540 l 35 432 l 515 432 l 515 540 z "},"∞":{"ha":1018,"x_min":0,"x_max":0,"o":"m 479 440 b 538 479 511 440 529 479 b 561 474 540 479 551 474 b 614 538 593 474 614 507 b 608 561 614 547 613 554 b 631 514 626 560 631 531 l 631 481 b 639 471 631 475 633 471 b 700 413 671 471 699 440 b 524 440 688 429 617 440 b 482 435 511 440 496 435 b 449 436 468 435 463 436 b 294 399 381 436 294 417 b 333 382 294 386 325 382 b 367 376 343 382 354 376 b 493 393 394 376 439 393 b 646 383 601 393 593 383 b 682 396 661 383 676 396 b 703 404 685 396 699 399 b 681 357 700 369 696 367 b 678 353 678 356 678 353 b 682 350 678 351 681 350 b 700 361 688 350 699 358 b 614 199 692 299 665 244 l 715 199 b 750 490 729 274 750 382 b 486 843 750 668 699 843 b 242 513 294 843 242 682 b 290 199 242 393 269 267 l 367 199 b 300 343 333 233 311 286 b 317 336 301 342 311 336 b 321 342 319 336 321 338 b 290 389 321 342 290 376 b 317 444 290 410 290 429 b 374 553 358 475 349 528 b 363 504 367 542 363 521 b 392 469 363 489 376 469 b 426 475 407 469 417 475 b 479 440 439 475 450 440 z m 1018 404 b 824 604 965 514 857 597 b 467 992 797 804 726 992 b 157 593 264 992 165 781 b 0 404 128 561 35 489 l 0 199 b 165 454 33 254 113 425 b 192 199 165 365 168 282 l 257 199 b 217 490 236 261 217 372 b 481 918 217 697 275 918 b 776 475 722 918 776 690 b 754 199 776 369 765 271 l 813 199 b 833 376 824 260 833 310 b 829 444 833 404 831 425 b 1018 199 869 444 983 275 z m 479 699 b 411 675 458 685 433 675 b 343 697 367 675 344 697 b 339 692 342 697 339 696 b 347 682 339 690 343 685 b 290 628 343 661 314 640 b 488 792 313 718 381 792 b 681 681 603 792 656 749 b 608 696 656 690 625 696 b 619 707 610 697 619 704 b 614 710 619 708 617 710 b 538 686 610 710 588 686 b 478 710 499 686 482 710 b 475 707 476 710 475 708 b 479 699 475 704 478 700 z m 515 597 l 515 578 b 525 560 515 571 517 560 b 561 578 538 560 543 578 b 592 542 582 578 592 558 b 556 493 592 518 575 493 b 529 503 549 493 538 503 b 478 474 519 503 511 474 b 433 511 453 474 442 511 b 396 493 424 511 422 493 b 381 513 386 494 381 503 b 421 561 381 538 396 561 b 450 553 433 561 442 553 b 496 661 465 553 471 661 b 515 597 506 661 515 613 z m 704 551 b 708 442 706 515 708 481 b 650 500 693 483 650 489 b 603 571 650 519 644 571 b 560 590 592 583 578 590 b 539 588 554 590 549 590 b 511 667 529 588 532 636 b 532 661 517 664 525 663 b 529 649 532 657 529 651 b 603 590 529 617 564 590 b 685 650 640 590 685 607 l 692 646 b 704 551 699 619 700 583 z m 532 431 b 674 407 588 431 674 417 b 646 394 674 404 660 394 b 493 404 604 394 543 404 b 357 386 449 404 419 386 b 329 400 349 386 329 386 b 447 429 329 407 401 429 b 481 425 457 429 468 425 b 532 431 496 425 529 431 z m 371 574 b 457 658 421 574 456 617 l 475 664 b 428 579 442 624 444 579 b 396 572 417 579 406 576 b 343 515 363 568 347 547 b 285 442 338 479 304 471 b 281 550 281 481 281 514 b 286 610 281 568 281 588 b 307 617 292 611 300 613 b 371 574 310 597 335 574 z m 582 646 b 608 675 599 646 606 663 b 668 651 631 675 668 667 b 607 610 668 626 631 610 b 543 643 581 610 543 622 b 560 664 543 649 549 664 b 582 646 561 657 567 646 z m 371 593 b 325 626 350 593 329 604 b 350 643 335 632 343 636 b 371 636 357 636 364 636 b 396 656 381 636 392 643 b 421 654 406 654 413 654 l 433 654 b 435 642 435 650 435 646 b 371 593 435 617 396 593 z m 369 400 b 518 413 417 410 467 413 b 640 406 560 413 601 411 b 644 410 642 406 644 407 b 515 421 644 418 543 421 b 367 404 482 421 367 417 b 369 400 367 401 368 400 z m 424 364 b 429 358 424 360 426 358 b 460 367 438 358 449 367 b 524 368 475 367 497 368 b 551 363 535 368 540 363 b 554 367 554 363 554 364 b 511 378 554 378 513 378 b 424 364 493 378 424 376 z m 579 657 b 569 667 574 657 569 660 b 592 675 576 669 585 675 b 592 671 592 675 592 672 b 579 657 592 663 586 657 z m 369 647 b 360 651 365 647 361 649 b 368 665 365 657 368 663 b 383 660 374 663 378 661 b 369 647 381 651 375 647 z m 449 47 l 468 47 l 489 114 l 478 0 l 507 0 l 525 174 l 489 174 l 463 90 l 456 174 l 421 174 l 401 0 l 431 0 l 442 114 z m 90 31 l 103 144 b 78 174 104 164 94 174 l 26 174 l 10 0 l 61 0 b 90 31 78 0 89 10 z m 389 61 l 397 144 b 372 174 399 164 389 174 l 321 174 l 303 0 l 335 0 l 339 32 l 347 32 l 357 0 l 386 0 l 375 38 b 389 61 382 42 388 50 z m 253 0 l 285 0 l 300 144 b 275 174 301 164 292 174 l 251 174 b 221 144 235 174 222 164 l 206 0 l 235 0 l 239 32 l 258 32 z m 575 0 l 604 0 l 622 144 b 594 174 624 164 611 174 l 574 174 b 540 144 557 174 542 164 l 525 0 l 557 0 l 561 32 l 579 32 z m 819 0 l 851 0 l 856 32 l 875 32 b 908 61 892 32 907 42 l 917 144 b 889 174 918 164 908 174 l 840 174 z m 156 0 l 186 0 l 206 174 l 174 174 l 161 58 l 143 58 l 156 174 l 126 174 l 106 0 l 138 0 l 142 32 l 160 32 z m 740 174 l 729 61 b 750 32 728 43 736 33 l 738 0 l 769 0 l 782 32 b 808 61 796 33 807 43 l 819 174 l 790 174 l 779 64 b 772 58 779 60 776 58 l 765 58 b 760 64 760 58 760 60 l 772 174 z m 707 147 l 725 147 l 728 174 l 660 174 l 657 147 l 675 147 l 660 0 l 692 0 z m 72 142 l 61 31 b 57 25 61 28 60 25 l 42 25 l 56 147 l 68 147 b 72 142 72 147 74 146 z m 883 142 l 876 64 b 869 58 876 60 874 58 l 857 58 l 867 147 l 879 147 b 883 142 883 147 885 146 z m 240 58 l 249 142 b 257 147 249 146 251 147 l 265 147 b 269 142 269 147 269 146 l 260 58 z m 367 142 l 360 64 b 353 58 360 60 357 58 l 340 58 l 350 147 l 363 147 b 367 142 367 147 367 146 z m 563 58 l 571 142 b 578 147 571 146 574 147 l 585 147 b 589 142 589 147 589 146 l 581 58 z m 988 79 l 957 79 l 964 147 l 1003 147 l 1006 174 l 938 174 l 919 0 l 988 0 l 990 25 l 951 25 l 954 54 l 985 54 z "},"≈":{"ha":550,"x_min":0,"x_max":0,"o":"m 83 276 b 175 356 128 340 146 356 b 263 317 196 356 217 347 b 374 271 315 282 344 271 b 539 390 435 271 481 304 l 467 465 b 375 386 419 400 404 386 b 288 425 354 386 333 394 b 176 471 235 460 206 471 b 11 346 118 471 72 436 z m 83 507 b 175 586 128 571 146 586 b 263 547 196 586 217 578 b 374 501 315 513 344 501 b 539 621 435 501 481 535 l 467 696 b 375 617 419 631 404 617 b 288 656 354 617 333 625 b 176 701 235 690 206 701 b 11 576 118 701 72 667 z "}}}
